<svg width="24" height="24" viewBox="0 0 24 24" fill="none" xmlns="http://www.w3.org/2000/svg">
<path d="M13.1981 12L9.42886 7.89599C9.27424 7.73983 9.1875 7.52895 9.1875 7.30919C9.1875 7.08943 9.27424 6.87856 9.42886 6.72239C9.50479 6.64529 9.59529 6.58407 9.69511 6.54227C9.79492 6.50048 9.90205 6.47896 10.0103 6.47896C10.1185 6.47896 10.2256 6.50048 10.3254 6.54227C10.4252 6.58407 10.5157 6.64529 10.5917 6.72239L15.1877 11.412C15.3421 11.5685 15.4286 11.7795 15.4286 11.9994C15.4286 12.2193 15.3421 12.4303 15.1877 12.5868L10.5917 17.2764C10.5157 17.3535 10.4252 17.4147 10.3254 17.4565C10.2256 17.4983 10.1185 17.5198 10.0103 17.5198C9.90205 17.5198 9.79492 17.4983 9.69511 17.4565C9.59529 17.4147 9.50479 17.3535 9.42886 17.2764C9.27424 17.1202 9.1875 16.9094 9.1875 16.6896C9.1875 16.4698 9.27424 16.259 9.42886 16.1028L13.1981 12Z" fill="#666666"/>
</svg>
