<svg width="22" height="22" viewBox="0 0 22 22" fill="none" xmlns="http://www.w3.org/2000/svg">
<path d="M16.9689 18.2563L17.7268 17.9896L17.1528 17.4274L11.8308 12.2147L11.8307 12.2146C11.4108 11.8036 10.7627 11.7663 10.301 12.103L10.2863 12.1137L10.2724 12.1254L10.1958 12.1903L10.182 12.202L10.1691 12.2147L4.84625 17.4271L4.27208 17.9894L5.03017 18.256C5.2494 18.3331 5.48487 18.375 5.72917 18.375H16.2708C16.5146 18.375 16.7498 18.3334 16.9689 18.2563ZM3.74928 16.9846L4.01324 17.7169L4.56945 17.1723L9.90678 11.9467L9.90679 11.9467C10.483 11.3825 11.3874 11.3535 11.9968 11.8598L12.1 11.9534L17.4302 17.1732L17.9862 17.7177L18.2504 16.9857C18.3311 16.7619 18.375 16.5211 18.375 16.2708V5.72917C18.375 4.56707 17.4329 3.625 16.2708 3.625H5.72917C4.56707 3.625 3.625 4.56707 3.625 5.72917V16.2708C3.625 16.5205 3.66871 16.7611 3.74928 16.9846ZM16.2708 3.25C17.64 3.25 18.75 4.35996 18.75 5.72917V16.2708C18.75 17.64 17.64 18.75 16.2708 18.75H5.72917C4.35996 18.75 3.25 17.64 3.25 16.2708V5.72917C3.25 4.35996 4.35996 3.25 5.72917 3.25H16.2708ZM13.9811 6.45833C14.8451 6.45833 15.5455 7.15876 15.5455 8.02278C15.5455 8.88678 14.8451 9.58718 13.9811 9.58718C13.1171 9.58718 12.4167 8.88678 12.4167 8.02278C12.4167 7.15876 13.1171 6.45833 13.9811 6.45833ZM13.9811 6.83333C13.3241 6.83333 12.7917 7.36588 12.7917 8.02278C12.7917 8.67967 13.3241 9.21221 13.9811 9.21221C14.638 9.21221 15.1705 8.67967 15.1705 8.02278C15.1705 7.36588 14.638 6.83333 13.9811 6.83333Z" fill="#666666" stroke="#404040"/>
</svg>
