<svg width="24" height="24" viewBox="0 0 24 24" fill="none" xmlns="http://www.w3.org/2000/svg">
<path d="M5 10V9H4V10H5ZM19 10H20V9H19V10ZM19 21V22H20V21H19ZM5 21H4V22H5V21ZM15 10C15 10.5523 15.4477 11 16 11C16.5523 11 17 10.5523 17 10H15ZM7 10C7 10.5523 7.44772 11 8 11C8.55228 11 9 10.5523 9 10H7ZM13 14V13H11V14H13ZM11 17V18H13V17H11ZM5 11H19V9H5V11ZM18 10V21H20V10H18ZM19 20H5V22H19V20ZM6 21V10H4V21H6ZM15 7V10H17V7H15ZM9 10V7H7V10H9ZM12 4C13.6569 4 15 5.34315 15 7H17C17 4.23858 14.7614 2 12 2V4ZM12 2C9.23858 2 7 4.23858 7 7H9C9 5.34315 10.3431 4 12 4V2ZM11 14V17H13V14H11Z" fill="#666666"/>
</svg>
