<svg width="16" height="22" viewBox="0 0 16 22" fill="none" xmlns="http://www.w3.org/2000/svg">
<path d="M3.05694 1.41844L4.22394 1.06668C5.54645 0.668038 6.9594 1.31227 7.5258 2.5721L8.4275 4.57782C8.9102 5.65165 8.6558 6.91366 7.7948 7.71661L6.3005 9.1101C6.2568 9.1508 6.2291 9.2058 6.2225 9.2652C6.1781 9.6623 6.4474 10.4357 7.0676 11.51C7.5187 12.2913 7.9269 12.8391 8.2744 13.1473C8.5165 13.362 8.6498 13.4084 8.7065 13.3915L10.7169 12.7769C11.8425 12.4328 13.0623 12.8431 13.751 13.7976L15.0317 15.5726C15.8378 16.6898 15.6928 18.2311 14.6926 19.1784L13.8062 20.0178C12.8498 20.9236 11.4882 21.2611 10.2195 20.907C7.4654 20.1383 4.99608 17.8141 2.78421 13.9831C0.569259 10.1467 -0.207931 6.84222 0.508519 4.07043C0.836389 2.80195 1.80252 1.79656 3.05694 1.41844ZM3.48984 2.85461C2.73719 3.08148 2.15751 3.68472 1.96079 4.44581C1.35814 6.77732 2.047 9.7062 4.08325 13.2331C6.1168 16.7552 8.3057 18.8155 10.6227 19.4622C11.384 19.6747 12.2009 19.4722 12.7748 18.9287L13.6611 18.0893C14.1158 17.6587 14.1817 16.9581 13.8153 16.4503L12.5346 14.6753C12.2215 14.2415 11.667 14.0549 11.1554 14.2114L9.1401 14.8275C7.9704 15.1762 6.9087 14.2347 5.7686 12.26C5.00029 10.9293 4.6422 9.9006 4.73177 9.0987C4.77817 8.68322 4.97174 8.29812 5.27746 8.01303L6.7718 6.61958C7.1632 6.2546 7.2788 5.68096 7.0594 5.19286L6.1577 3.18714C5.90026 2.61449 5.25798 2.32165 4.65684 2.50285L3.48984 2.85461Z" fill="#666666"/>
</svg>
