<svg width="18" height="19" viewBox="0 0 18 19" fill="none" xmlns="http://www.w3.org/2000/svg">
<path d="M1.50076 18L0.505154 17.9064L0.402344 19H1.50076V18ZM16.5008 18V19H17.5992L17.4964 17.9064L16.5008 18ZM11.5008 4.5C11.5008 5.88071 10.3815 7 9.00076 7V9C11.4861 9 13.5008 6.98528 13.5008 4.5H11.5008ZM9.00076 7C7.62006 7 6.50076 5.88071 6.50076 4.5H4.50076C4.50076 6.98528 6.51548 9 9.00076 9V7ZM6.50076 4.5C6.50076 3.11929 7.62006 2 9.00076 2V0C6.51548 0 4.50076 2.01472 4.50076 4.5H6.50076ZM9.00076 2C10.3815 2 11.5008 3.11929 11.5008 4.5H13.5008C13.5008 2.01472 11.4861 0 9.00076 0V2ZM2.49637 18.0936C2.822 14.6298 5.37813 12 9.00076 12V10C4.24298 10 0.917414 13.5211 0.505154 17.9064L2.49637 18.0936ZM9.00076 12C12.6234 12 15.1796 14.6298 15.5052 18.0936L17.4964 17.9064C17.0842 13.5211 13.7586 10 9.00076 10V12ZM1.50076 19H16.5008V17H1.50076V19Z" fill="#666666"/>
</svg>
