<?xml version="1.0" encoding="utf-8"?>
<!-- Generator: Adobe Illustrator 27.5.0, SVG Export Plug-In . SVG Version: 6.00 Build 0)  -->
<svg version="1.1" xmlns="http://www.w3.org/2000/svg" xmlns:xlink="http://www.w3.org/1999/xlink" x="0px" y="0px"
	 viewBox="0 0 500 500" style="enable-background:new 0 0 500 500;" xml:space="preserve">
<g id="Background_Complete">
	<g>
		<g>
			<g>
				<g>
					<rect y="382.398" style="fill:#E6E6E6;" width="500" height="0.25"/>
					<rect x="79.459" y="390.417" style="fill:#E6E6E6;" width="34.404" height="0.25"/>
					<rect x="120.446" y="390.417" style="fill:#E6E6E6;" width="10.279" height="0.25"/>
					<rect x="162.085" y="385.505" style="fill:#E6E6E6;" width="19.359" height="0.25"/>
					<rect x="387.422" y="395.966" style="fill:#E6E6E6;" width="43.193" height="0.25"/>
					<rect x="439.519" y="395.966" style="fill:#E6E6E6;" width="6.333" height="0.25"/>
					<rect x="304.667" y="387.194" style="fill:#E6E6E6;" width="93.676" height="0.25"/>
					<path style="fill:#E6E6E6;" d="M237.014,337.8H43.915c-3.147,0-5.708-2.561-5.708-5.708V60.66c0-3.147,2.561-5.708,5.708-5.708
						h193.099c3.146,0,5.707,2.561,5.707,5.708v271.432C242.721,335.239,240.16,337.8,237.014,337.8z M43.915,55.203
						c-3.01,0-5.458,2.448-5.458,5.458v271.432c0,3.01,2.448,5.458,5.458,5.458h193.099c3.009,0,5.457-2.448,5.457-5.458V60.66
						c0-3.009-2.448-5.458-5.457-5.458H43.915z"/>
					<path style="fill:#E6E6E6;" d="M453.31,337.8H260.212c-3.146,0-5.707-2.561-5.707-5.708V60.66c0-3.147,2.561-5.708,5.707-5.708
						H453.31c3.148,0,5.708,2.561,5.708,5.708v271.432C459.019,335.239,456.458,337.8,453.31,337.8z M260.212,55.203
						c-3.009,0-5.457,2.448-5.457,5.458v271.432c0,3.01,2.448,5.458,5.457,5.458H453.31c3.01,0,5.458-2.448,5.458-5.458V60.66
						c0-3.009-2.448-5.458-5.458-5.458H260.212z"/>
				</g>
			</g>
		</g>
		<g>
			<g>
				<rect x="348.947" y="246.111" style="fill:#F5F5F5;" width="70.066" height="136.287"/>
				<rect x="413.235" y="246.111" style="fill:#F0F0F0;" width="5.778" height="136.287"/>
				
					<rect x="193.013" y="250" transform="matrix(-1 -1.224647e-16 1.224647e-16 -1 547.3598 529.4444)" style="fill:#E0E0E0;" width="161.333" height="29.444"/>
				<path style="fill:#E0E0E0;" d="M260.291,382.5h-69.166c-0.552,0-1-0.447-1-1s0.448-1,1-1h69.166
					c9.999,0,11.333-2.915,11.333-14.5V220c0-0.552,0.447-1,1-1c0.553,0,1,0.448,1,1v146
					C273.624,378.38,271.697,382.5,260.291,382.5z"/>
				
					<rect x="199.226" y="246.633" transform="matrix(-1 -1.224647e-16 1.224647e-16 -1 616.6738 503.4878)" style="fill:#F0F0F0;" width="218.222" height="10.222"/>
				<rect x="130.725" y="246.111" style="fill:#F5F5F5;" width="70.066" height="136.287"/>
				<rect x="195.013" y="246.111" style="fill:#F0F0F0;" width="5.778" height="136.287"/>
			</g>
			<g>
				
					<rect x="-0.24" y="230.983" transform="matrix(-1.836970e-16 1 -1 -1.836970e-16 382.1584 139.9366)" style="fill:#FAFAFA;" width="242.702" height="60.13"/>
				
					<rect x="94.347" y="146.783" transform="matrix(-1.836970e-16 1 -1 -1.836970e-16 294.6584 52.4365)" style="fill:#F5F5F5;" width="53.529" height="53.529"/>
				<path style="fill:#E0E0E0;" d="M109.263,146.074L109.263,146.074h23.695l0,0c0,3.065-2.485,5.55-5.55,5.55h-12.595
					C111.748,151.625,109.263,149.14,109.263,146.074z"/>
				
					<rect x="94.347" y="205.116" transform="matrix(-1.836970e-16 1 -1 -1.836970e-16 352.9917 110.7698)" style="fill:#F5F5F5;" width="53.529" height="53.529"/>
				
					<rect x="94.347" y="263.45" transform="matrix(-1.836970e-16 1 -1 -1.836970e-16 411.3251 169.1032)" style="fill:#F5F5F5;" width="53.529" height="53.529"/>
				
					<rect x="94.347" y="321.783" transform="matrix(-1.836970e-16 1 -1 -1.836970e-16 469.6584 227.4365)" style="fill:#F5F5F5;" width="53.529" height="53.529"/>
				<path style="fill:#E0E0E0;" d="M109.263,204.408L109.263,204.408h23.695l0,0c0,3.065-2.485,5.55-5.55,5.55h-12.595
					C111.748,209.958,109.263,207.473,109.263,204.408z"/>
				<path style="fill:#E0E0E0;" d="M109.263,262.741L109.263,262.741h23.695l0,0c0,3.065-2.485,5.55-5.55,5.55h-12.595
					C111.748,268.291,109.263,265.806,109.263,262.741z"/>
				<path style="fill:#E0E0E0;" d="M109.263,321.074L109.263,321.074h23.695l0,0c0,3.065-2.485,5.55-5.55,5.55h-12.595
					C111.748,326.625,109.263,324.14,109.263,321.074z"/>
				
					<rect x="-45.321" y="246.031" transform="matrix(-1.836970e-16 1 -1 -1.836970e-16 337.0771 185.0179)" style="fill:#F0F0F0;" width="242.702" height="30.033"/>
			</g>
			<g>
				<polygon style="fill:#F0F0F0;" points="264.393,246.111 249.276,246.111 252.954,216.69 268.071,216.69 				"/>
				<polygon style="fill:#F5F5F5;" points="267.736,246.111 252.619,246.111 256.296,216.69 271.413,216.69 				"/>
				<polygon style="fill:#F0F0F0;" points="300.162,246.111 289.234,246.111 287.136,242.778 298.064,242.778 				"/>
				<polygon style="fill:#FAFAFA;" points="358.72,246.111 292.574,246.111 290.476,242.778 349.804,242.778 				"/>
				<path style="fill:#F0F0F0;" d="M216.458,237.667h4.778c4.664,0,8.444,3.781,8.444,8.444l0,0h-21.667l0,0
					C208.013,241.447,211.794,237.667,216.458,237.667z"/>
				<polygon style="fill:#F0F0F0;" points="269.574,231.4 254.458,231.4 256.296,216.69 271.413,216.69 				"/>
				<path style="fill:#F0F0F0;" d="M214.029,227.879h106.93c0.892,0,1.581-0.781,1.471-1.666l-8.24-65.926
					c-0.093-0.742-0.723-1.299-1.471-1.299h-106.93c-0.892,0-1.581,0.782-1.471,1.666l8.24,65.925
					C212.65,227.322,213.281,227.879,214.029,227.879z"/>
				<path style="fill:#F5F5F5;" d="M215.617,227.879h106.93c0.892,0,1.582-0.781,1.471-1.666l-8.24-65.926
					c-0.093-0.742-0.723-1.299-1.471-1.299h-106.93c-0.892,0-1.582,0.782-1.471,1.666l8.24,65.925
					C214.239,227.322,214.87,227.879,215.617,227.879z"/>
				<path style="fill:#E0E0E0;" d="M320.569,224.235l-7.713-61.706c-0.026-0.207-0.202-0.363-0.411-0.363H209.766
					c-0.249,0-0.442,0.219-0.411,0.466l7.714,61.706c0.026,0.208,0.202,0.363,0.411,0.363h102.677
					C320.407,224.701,320.6,224.482,320.569,224.235z"/>
				<path style="fill:#FAFAFA;" d="M259.323,243.354h19.718c1.354,0,2.452,1.098,2.452,2.452v0.305h-24.621v-0.305
					C256.871,244.451,257.969,243.354,259.323,243.354z"/>
				<path style="fill:#F0F0F0;" d="M245.47,243.354h11.799c1.354,0,2.452,1.098,2.452,2.452v0.305h-16.703v-0.305
					C243.019,244.451,244.116,243.354,245.47,243.354z"/>
			</g>
			<path style="fill:#E0E0E0;" d="M116.457,112.287c0.006-0.014,0.003-0.029,0.007-0.044c0.231-0.772,0.444-1.552,0.636-2.337
				c1.164,1.508,2.295,1.892,3.138,1.892c0.093,0,0.183-0.005,0.27-0.013c1.67-0.162,3.271-1.78,4.283-4.33
				c0.038-0.096,0.033-0.203-0.013-0.295c-0.047-0.092-0.131-0.159-0.23-0.185c-3.251-0.849-5.831,0.415-7.064,1.225
				c0.15-0.742,0.278-1.485,0.383-2.229c0.272,0.048,0.54,0.08,0.8,0.08c2.726,0,4.726-2.429,4.821-2.546
				c0.072-0.089,0.098-0.207,0.068-0.317c-0.029-0.111-0.109-0.201-0.215-0.243c-1.624-0.644-3-0.7-4.089-0.165
				c-0.674,0.331-1.218,0.888-1.612,1.629c-0.586-1.756-2.309-5.113-7.094-6.06c-0.105-0.021-0.209,0.005-0.29,0.069
				c-0.082,0.063-0.133,0.16-0.138,0.264c-0.14,2.474-0.062,5.5,1.795,6.943c0.704,0.547,1.589,0.82,2.672,0.82
				c0.749,0,1.599-0.139,2.544-0.4c-0.26,1.775-0.654,3.549-1.146,5.287c-0.967-1.28-3.489-4.146-7.315-5.134
				c-0.192-0.052-0.388,0.065-0.438,0.256c-0.561,2.129-0.274,3.858,0.831,4.999c0.911,0.941,2.335,1.422,4.136,1.422
				c0.738,0,1.543-0.085,2.398-0.248c-0.455,1.457-0.966,2.881-1.51,4.248c-1.111-0.983-4.381-3.478-7.934-2.439
				c-0.098,0.029-0.179,0.098-0.223,0.189c-0.044,0.092-0.048,0.198-0.009,0.293c0.968,2.357,2.064,3.665,3.448,4.115
				c0.362,0.117,0.739,0.177,1.138,0.177c0.875,0,1.854-0.29,2.977-0.872c-0.768,1.806-1.574,3.493-2.347,4.999
				c-0.838-0.905-3.119-2.769-7.166-1.904c-0.178,0.038-0.299,0.202-0.283,0.383c0.131,1.468,1.173,2.867,2.592,3.481
				c0.394,0.17,0.963,0.34,1.666,0.34c0.657,0,1.432-0.156,2.288-0.592c-0.788,1.45-1.504,2.662-2.065,3.578h-6.802
				c-1.076-1.85-2.323-4.146-3.543-6.732c0.597,0.175,1.184,0.27,1.747,0.27c1.204,0,2.304-0.398,3.189-1.182
				c1.362-1.209,1.952-3.116,1.467-4.746c-0.049-0.166-0.209-0.275-0.383-0.255c-3.964,0.418-5.961,3.052-6.725,4.377
				c-0.802-1.798-1.574-3.708-2.255-5.686c1.045,0.541,1.986,0.826,2.829,0.826c0.407,0,0.794-0.063,1.161-0.188
				c1.958-0.667,3.142-3.073,4.129-5.574c0.038-0.095,0.033-0.201-0.013-0.292c-0.045-0.091-0.127-0.159-0.225-0.186
				c-4.031-1.122-7.299,2.732-8.313,4.107c-0.528-1.66-0.983-3.357-1.334-5.065c0.908,0.165,1.764,0.251,2.552,0.251
				c2.051,0,3.667-0.553,4.684-1.633c1.207-1.281,1.5-3.197,0.847-5.541c-0.053-0.19-0.246-0.301-0.441-0.251
				c-4.119,1.124-6.824,4.254-7.911,5.734c-0.052-0.306-0.104-0.612-0.148-0.917c-0.012-0.082-0.053-0.15-0.105-0.207
				c-0.433-1.305-1.191-2.251-2.206-2.732c-1.201-0.569-2.71-0.487-4.484,0.244c-0.106,0.044-0.185,0.135-0.212,0.246
				c-0.027,0.111-0.001,0.229,0.072,0.317c0.105,0.127,2.306,2.726,5.265,2.726c0.306,0,0.623-0.04,0.944-0.102
				c0.131,0.85,0.29,1.699,0.475,2.546c-1.354-0.872-4.226-2.252-7.821-1.262c-0.099,0.027-0.182,0.096-0.228,0.188
				c-0.045,0.092-0.048,0.2-0.009,0.295c1.149,2.788,2.93,4.543,4.763,4.695c0.081,0.007,0.165,0.01,0.252,0.01
				c0.93,0,2.189-0.427,3.468-2.145c0.508,1.96,1.132,3.888,1.826,5.745c-1.73-0.817-5.621-2.235-8.403-0.082
				c-0.155,0.119-0.185,0.34-0.07,0.497c1.796,2.451,3.46,3.642,5.087,3.642c0.014,0,0.027,0,0.041,0
				c1.352-0.017,2.644-0.852,3.937-2.531c0.739,1.843,1.531,3.599,2.326,5.226c-1.729-1.076-3.632-0.905-5.874,0.51
				c-0.101,0.064-0.164,0.174-0.168,0.293c-0.004,0.119,0.053,0.233,0.15,0.303c0.126,0.091,2.269,1.61,4.522,1.61
				c0.807,0,1.628-0.198,2.375-0.722c0.639,1.229,1.264,2.362,1.845,3.373h-3.091v1.757h1.125l0.928,9.319h13.685l0.928-9.319h1.125
				v-1.757h-6.139c0.684-1.131,1.552-2.638,2.482-4.415c0.027-0.035,0.046-0.072,0.059-0.113c0.233-0.448,0.47-0.912,0.709-1.393
				c0.984,1.333,2.291,2.067,3.701,2.067c0.152,0,0.305-0.009,0.458-0.026c1.65-0.183,3.158-1.362,3.665-2.865
				c0.055-0.164-0.014-0.344-0.165-0.429c-2.885-1.613-5.543-0.885-6.921-0.273c0.517-1.098,1.032-2.261,1.525-3.471
				c0.033-0.047,0.057-0.101,0.065-0.16c0.138-0.34,0.274-0.684,0.408-1.032c1.193,1.501,2.377,2.241,3.606,2.241
				c0.001,0,0.003,0,0.004,0c1.496-0.002,3.009-1.106,4.625-3.374c0.113-0.159,0.079-0.378-0.077-0.496
				c-2.541-1.913-6.032-0.607-7.611,0.159c0.321-0.898,0.624-1.813,0.902-2.741C116.45,112.295,116.455,112.292,116.457,112.287z"/>
			<g>
				<g>
					<rect x="351.326" y="108.067" style="fill:#E0E0E0;" width="51.14" height="56.155"/>
					<path style="fill:#EBEBEB;" d="M396.158,110.372c-0.044,0-0.088-0.011-0.128-0.035c-0.122-0.073-12.196-7.253-16.036-7.253
						c-3.837,0-15.354,7.178-15.47,7.25c-0.115,0.074-0.271,0.039-0.345-0.079c-0.073-0.117-0.038-0.271,0.079-0.345
						c0.478-0.299,11.756-7.327,15.735-7.327c3.977,0,15.791,7.025,16.292,7.324c0.119,0.071,0.157,0.225,0.087,0.343
						C396.326,110.329,396.243,110.372,396.158,110.372z"/>
					<rect x="355.181" y="108.067" style="fill:#F5F5F5;" width="52.824" height="56.155"/>
					
						<rect x="357.941" y="114.158" transform="matrix(-1.836970e-16 1 -1 -1.836970e-16 517.7374 -245.449)" style="fill:#FFFFFF;" width="47.304" height="43.973"/>
				</g>
				
					<ellipse transform="matrix(0.7071 -0.7071 0.7071 0.7071 15.4976 309.7028)" style="fill:#E0E0E0;" cx="381.593" cy="136.144" rx="12.045" ry="12.045"/>
			</g>
			<g>
				<path style="fill:#E6E6E6;" d="M380.569,314.255h44.82c8.557,0,15.542-6.844,15.716-15.399l1.671-82.056
					c0.13-6.413-5.033-11.683-11.447-11.683h-28.096c-5.822,0-10.717,4.368-11.376,10.153L380.569,314.255z"/>
				<path style="fill:#E6E6E6;" d="M361.152,305.667h43.861v8.588h-47.762c-1.236,0-2.238-1.002-2.238-2.238v-0.211
					C355.013,308.415,357.762,305.667,361.152,305.667z"/>
				<path style="fill:#E6E6E6;" d="M401.262,383.523c-0.464,0-0.88-0.324-0.979-0.797l-14.008-67.472H361.88l-14.007,67.472
					c-0.113,0.541-0.646,0.884-1.183,0.776c-0.541-0.112-0.889-0.642-0.776-1.183l14.173-68.269
					c0.097-0.464,0.506-0.797,0.979-0.797h26.023c0.474,0,0.883,0.333,0.979,0.797l14.174,68.269
					c0.112,0.541-0.235,1.07-0.776,1.183C401.397,383.517,401.329,383.523,401.262,383.523z"/>
				<path style="fill:#E6E6E6;" d="M386.052,383.523c-0.067,0-0.136-0.007-0.204-0.021c-0.541-0.112-0.889-0.642-0.776-1.183
					l14.174-68.269c0.097-0.464,0.506-0.797,0.979-0.797h26.022c0.474,0,0.883,0.333,0.98,0.797l14.173,68.269
					c0.112,0.541-0.235,1.07-0.776,1.183c-0.542,0.108-1.07-0.235-1.183-0.776l-14.007-67.472h-24.396l-14.008,67.472
					C386.932,383.199,386.516,383.523,386.052,383.523z"/>
			</g>
		</g>
	</g>
</g>
<g id="Background_Simple" style="display:none;">
	<g style="display:inline;">
		<path style="fill:#407BFF;" d="M199.698,73.063c-71.869,20.752-151.74,98.862-124.379,179.724
			c27.501,81.275,155.217,115.96,180.061,13.417c4.593-18.958-3.845-43.509,8.82-59.655c12.718-16.213,42.743-14.539,61.783-17.423
			c39.017-5.91,65.231-28.211,45.038-69.796C343.602,62.86,251.24,58.18,199.698,73.063z"/>
		<path style="opacity:0.8;fill:#FFFFFF;" d="M199.698,73.063c-71.869,20.752-151.74,98.862-124.379,179.724
			c27.501,81.275,155.217,115.96,180.061,13.417c4.593-18.958-3.845-43.509,8.82-59.655c12.718-16.213,42.743-14.539,61.783-17.423
			c39.017-5.91,65.231-28.211,45.038-69.796C343.602,62.86,251.24,58.18,199.698,73.063z"/>
	</g>
</g>
<g id="Shadow">
	<g>
		<ellipse style="fill:#F5F5F5;" cx="250" cy="416.238" rx="193.889" ry="11.323"/>
	</g>
</g>
<g id="Character">
	<g>
		<g>
			<g>
				<path style="fill:#407BFF;" d="M267.106,406.955c-0.632,0-1.197-0.443-1.328-1.086l-19.005-93.563h-33.081l-19.005,93.563
					c-0.149,0.733-0.861,1.208-1.599,1.059c-0.734-0.148-1.208-0.865-1.059-1.6l19.226-94.648c0.128-0.633,0.684-1.087,1.329-1.087
					h35.299c0.645,0,1.201,0.454,1.329,1.087l19.225,94.649c0.149,0.733-0.325,1.45-1.059,1.599
					C267.286,406.946,267.195,406.955,267.106,406.955z"/>
				<path style="fill:#407BFF;" d="M213.99,406.955c-0.632,0-1.197-0.443-1.328-1.086l-19.005-93.563h-33.081l-19.005,93.563
					c-0.149,0.733-0.861,1.208-1.599,1.059c-0.734-0.148-1.208-0.865-1.059-1.6l19.226-94.648c0.128-0.633,0.684-1.087,1.329-1.087
					h35.299c0.645,0,1.201,0.454,1.329,1.086l19.226,94.649c0.149,0.734-0.325,1.451-1.059,1.6
					C214.17,406.946,214.08,406.955,213.99,406.955z"/>
				<path style="fill:#407BFF;" d="M221.428,310.949h-60.797c-11.607,0-21.082-9.284-21.318-20.889l-2.266-92.399
					c-0.177-8.7,6.827-15.847,15.528-15.847h38.112c7.897,0,14.537,5.926,15.431,13.772L221.428,310.949z"/>
				<path style="fill:#407BFF;" d="M247.766,299.3H188.27v11.649h64.787c1.677,0,3.036-1.359,3.036-3.036v-0.286
					C256.093,303.028,252.365,299.3,247.766,299.3z"/>
			</g>
			<g style="opacity:0.3;">
				<path d="M267.106,406.955c-0.632,0-1.197-0.443-1.328-1.086l-19.005-93.563h-33.081l-19.005,93.563
					c-0.149,0.733-0.861,1.208-1.599,1.059c-0.734-0.148-1.208-0.865-1.059-1.6l19.226-94.648c0.128-0.633,0.684-1.087,1.329-1.087
					h35.299c0.645,0,1.201,0.454,1.329,1.087l19.225,94.649c0.149,0.733-0.325,1.45-1.059,1.599
					C267.286,406.946,267.195,406.955,267.106,406.955z"/>
				<path d="M213.99,406.955c-0.632,0-1.197-0.443-1.328-1.086l-19.005-93.563h-33.081l-19.005,93.563
					c-0.149,0.733-0.861,1.208-1.599,1.059c-0.734-0.148-1.208-0.865-1.059-1.6l19.226-94.648c0.128-0.633,0.684-1.087,1.329-1.087
					h35.299c0.645,0,1.201,0.454,1.329,1.086l19.226,94.649c0.149,0.734-0.325,1.451-1.059,1.6
					C214.17,406.946,214.08,406.955,213.99,406.955z"/>
				<path d="M221.428,310.949h-60.797c-11.607,0-21.082-9.284-21.318-20.889l-2.266-92.399c-0.177-8.7,6.827-15.847,15.528-15.847
					h38.112c7.897,0,14.537,5.926,15.431,13.772L221.428,310.949z"/>
				<path d="M247.766,299.3H188.27v11.649h64.787c1.677,0,3.036-1.359,3.036-3.036v-0.286
					C256.093,303.028,252.365,299.3,247.766,299.3z"/>
			</g>
		</g>
		<g>
			<path style="fill:#263238;" d="M204.507,176.756c0,0,8.501,11.099,3.005,33.199c-5.497,22.1-33.882,10.104-35.603-9.814
				c-2.029-23.48,24.356-7.29,29.035-28.172L204.507,176.756z"/>
			<g>
				<path style="fill:#407BFF;" d="M198.337,170.167c-3.686,2.607-5.15,6.383-1.065,10.082c4.084,3.699,9.898,3.582,11.654,2.061
					c1.755-1.521,1.417-9.237,1.417-9.237L198.337,170.167z"/>
				<path style="opacity:0.8;fill:#FFFFFF;" d="M198.337,170.167c-3.686,2.607-5.15,6.383-1.065,10.082
					c4.084,3.699,9.898,3.582,11.654,2.061c1.755-1.521,1.417-9.237,1.417-9.237L198.337,170.167z"/>
			</g>
			<path style="fill:#E58A7B;" d="M244.935,219.359c0.1,0.448,0.278,1.151,0.431,1.739l0.488,1.879
				c0.337,1.259,0.708,2.523,1.093,3.786c0.748,2.535,1.566,5.067,2.421,7.595c0.868,2.523,1.741,5.054,2.702,7.559
				c0.474,1.255,0.938,2.515,1.437,3.763l0.582,1.497c0.089,0.208,0.235,0.451,0.454,0.717c0.878,1.109,2.874,2.328,5.068,3.2
				c2.207,0.933,4.679,1.624,7.204,2.236c2.534,0.593,5.144,1.084,7.785,1.486c2.624,0.445,5.347,0.741,7.95,1.026l0.094,5.375
				c-5.735,0.562-11.355,0.626-17.162-0.003c-2.9-0.308-5.818-0.832-8.814-1.708c-1.493-0.457-3.005-1.022-4.536-1.788
				c-1.523-0.782-3.099-1.739-4.563-3.208c-0.727-0.733-1.421-1.593-2.002-2.588c-0.149-0.243-0.278-0.51-0.412-0.768l-0.263-0.536
				l-0.462-0.952c-0.62-1.267-1.236-2.538-1.81-3.829c-1.16-2.576-2.287-5.174-3.299-7.826c-1.038-2.641-1.98-5.327-2.838-8.058
				c-0.415-1.371-0.815-2.749-1.187-4.15l-0.542-2.119c-0.165-0.751-0.311-1.386-0.478-2.288L244.935,219.359z"/>
			<g>
				<path style="fill:#407BFF;" d="M241.538,208.035c4.287,1.092,7.286,18.733,7.286,18.733l-11.813,8.034
					c0,0-11.327-17.797-8.029-22.51C232.416,207.383,235.283,206.442,241.538,208.035z"/>
				<path style="opacity:0.5;fill:#FFFFFF;" d="M241.538,208.035c4.287,1.092,7.286,18.733,7.286,18.733l-11.813,8.034
					c0,0-11.327-17.797-8.029-22.51C232.416,207.383,235.283,206.442,241.538,208.035z"/>
			</g>
			<path style="opacity:0.2;fill:#407BFF;" d="M240,212.44l-10.27,8.14c2.43,6.59,7.28,14.22,7.28,14.22l8.19-5.57L240,212.44z"/>
			<g>
				<path style="fill:#407BFF;" d="M241.538,208.035c0,0,4.955,1.745-4.971,62.777c-16.763,0-34.087,0-42.244,0
					c0.709-17.193,0.729-27.794-7.488-63.079c0,0,8.851-1.925,17.939-2.363c7.109-0.343,12.933-0.57,19.182,0.001
					C232.195,206.123,241.538,208.035,241.538,208.035z"/>
				<path style="opacity:0.5;fill:#FFFFFF;" d="M241.538,208.035c0,0,4.955,1.745-4.971,62.777c-16.763,0-34.087,0-42.244,0
					c0.709-17.193,0.729-27.794-7.488-63.079c0,0,8.851-1.925,17.939-2.363c7.109-0.343,12.933-0.57,19.182,0.001
					C232.195,206.123,241.538,208.035,241.538,208.035z"/>
			</g>
			<path style="fill:#E58A7B;" d="M281.017,255.772l7.378-7.478l0.97,10.533c0,0-5.531,3.743-9.358,1.731L281.017,255.772z"/>
			<polygon style="fill:#E58A7B;" points="297.067,247.177 297.402,256.039 289.364,258.827 288.395,248.294 			"/>
			<polygon style="fill:#E58A7B;" points="284.456,397.295 294.857,397.295 296.458,373.208 286.057,373.208 			"/>
			<polygon style="fill:#E58A7B;" points="244.209,397.295 254.61,397.295 257.955,373.208 247.553,373.208 			"/>
			<path style="fill:#263238;" d="M255.255,396.091H243.57c-0.425,0-0.77,0.295-0.83,0.71l-1.331,9.246
				c-0.138,0.959,0.687,1.866,1.668,1.85c4.074-0.07,6.037-0.309,11.176-0.309c3.161,0,11.269,0.329,15.635,0.329
				c4.27,0,4.598-4.317,2.78-4.708c-8.151-1.753-12.928-4.171-15.674-6.477C256.499,396.315,255.877,396.091,255.255,396.091z"/>
			<path style="fill:#263238;" d="M295.667,396.091h-11.686c-0.425,0-0.77,0.295-0.83,0.71l-1.331,9.246
				c-0.138,0.959,0.687,1.866,1.668,1.85c4.074-0.07,6.037-0.309,11.176-0.309c3.161,0,9.701,0.329,14.066,0.329
				c4.27,0,4.598-4.317,2.781-4.708c-8.151-1.753-11.359-4.171-14.105-6.477C296.91,396.315,296.289,396.091,295.667,396.091z"/>
			<path style="fill:#263238;" d="M233.245,162.722c3.748,0.236,5.646,18.958-5.326,17.903
				C216.948,179.569,233.245,162.722,233.245,162.722z"/>
			<g>
				<polygon style="fill:#CF6F64;" points="296.456,373.215 295.632,385.63 285.227,385.63 286.05,373.215 				"/>
				<polygon style="fill:#CF6F64;" points="247.55,373.215 257.956,373.215 256.227,385.63 245.821,385.63 				"/>
			</g>
			<path style="opacity:0.2;fill:#407BFF;" d="M191.06,227.31c0.98,5.12,1.71,9.54,2.25,13.52l2.47-19.11L191.06,227.31z"/>
			<path style="fill:#E58A7B;" d="M206.675,183.771c1.21,6.172,2.418,17.481-1.901,21.599c0,0,1.687,6.261,13.156,6.261
				c12.611,0,6.027-6.26,6.027-6.26c-6.882-1.644-6.705-6.75-5.506-11.546L206.675,183.771z"/>
			<g>
				<polygon style="fill:#263238;" points="215.653,212.972 219.494,211.595 218.979,210.542 				"/>
				<polygon style="fill:#263238;" points="223.1,212.169 219.494,211.595 220.271,210.417 				"/>
				<path style="fill:#407BFF;" d="M206.17,202.456l-2.605,2.492c-0.168,0.161-0.18,0.426-0.027,0.601l10.962,12.534
					c0,0,0.434-4.18,4.479-7.542c-9.099-3.444-11.473-7.011-12.278-8.051C206.571,202.323,206.323,202.309,206.17,202.456z"/>
				<path style="fill:#407BFF;" d="M221.894,204.377l3.237,0.884c0.199,0.054,0.352,0.205,0.403,0.404
					c0.324,1.255,1.329,6.096-0.499,12.417c-0.469-1.703-2.01-5.778-4.764-7.667c2.982-2.063,1.785-4.736,1.363-5.745
					C221.562,204.502,221.716,204.329,221.894,204.377z"/>
			</g>
			<path style="fill:#CF6F64;" d="M211.475,187.874l6.97,5.946c-0.288,1.135-0.511,2.286-0.591,3.405
				c-2.629-0.38-6.241-3.266-6.52-6.019C211.194,189.833,211.252,188.513,211.475,187.874z"/>
			<path style="fill:#E58A7B;" d="M205.949,167.509c-1.192,10.254-1.915,14.569,2.276,20.691c6.305,9.209,19.16,8.43,23.391-1.261
				c3.809-8.723,5.118-24.026-4.088-29.839C218.458,151.374,207.141,157.255,205.949,167.509z"/>
			<path style="fill:#263238;" d="M229.441,150.583c-16.954-6.694-29.686,0.854-32.315,11.582
				c-4.083,16.663,9.067,17.834,9.067,17.834l1.642-4.256c2.374,1.423,9.053,0.793,6.97-11.574
				c-1.179-7.003,7.685,2.747,18.924,1.663C236.752,165.542,240.838,155.084,229.441,150.583z"/>
			<path style="fill:#263238;" d="M235.212,154.705c-2.237-3.436-6.796-6.371-16.241-7.76c0,0,4.905,1.103,6.501,4.695
				C227.068,155.23,237.9,158.832,235.212,154.705z"/>
			<path style="fill:#E58A7B;" d="M202.737,176.379c-0.168,2.133,0.665,4.145,1.829,5.464c1.75,1.984,4.059,0.765,4.773-1.638
				c0.643-2.163,0.507-5.801-1.827-6.901C205.212,172.22,202.929,173.939,202.737,176.379z"/>
			<path style="fill:#263238;" d="M236.568,270.812c0,0,69.74,6.483,69.058,38.202c-0.709,32.993-7.77,74.212-7.77,74.212h-14.404
				c0,0-1.233-34.881-1.647-67.362c-0.216-16.924-67.608-20.312-67.608-20.312l-8.7-24.739H236.568z"/>
			<path style="fill:#263238;" d="M225.412,270.812c0,0,45.072,14.95,46.209,33.446c2.093,34.063-12.882,78.968-12.882,78.968
				h-14.184c0,0,0.803-29.796,2.499-60.655c2.131-38.776-66.284-0.537-52.73-51.758H225.412z"/>
			<path style="fill:#263238;" d="M220.826,173.096c-0.148,0.826,0.17,1.574,0.71,1.67c0.54,0.097,1.097-0.495,1.245-1.32
				c0.148-0.826-0.17-1.574-0.71-1.67C221.531,171.679,220.974,172.27,220.826,173.096z"/>
			<path style="fill:#263238;" d="M230.161,174.766c-0.148,0.826,0.17,1.574,0.71,1.67c0.54,0.097,1.097-0.495,1.245-1.32
				c0.148-0.826-0.17-1.574-0.71-1.67C230.866,173.349,230.309,173.941,230.161,174.766z"/>
			<path style="fill:#263238;" d="M231.159,173.449l2.086-0.217C233.245,173.232,231.95,174.599,231.159,173.449z"/>
			<path style="fill:#DF5753;" d="M227.44,175.744c0,0,0.765,3.806,2.001,5.798c-1.272,0.822-3.043,0.026-3.043,0.026
				L227.44,175.744z"/>
			<path style="fill:#263238;" d="M222.953,184.214c-0.009,0-0.018-0.001-0.028-0.003c-3.838-0.687-5.164-3.721-5.177-3.752
				c-0.034-0.08,0.004-0.172,0.083-0.206c0.081-0.033,0.173,0.004,0.206,0.083c0.012,0.029,1.278,2.909,4.943,3.565
				c0.085,0.016,0.142,0.097,0.127,0.183C223.094,184.161,223.028,184.214,222.953,184.214z"/>
			<path style="fill:#263238;" d="M218.639,169.412c-0.085,0-0.169-0.034-0.231-0.101c-0.118-0.127-0.11-0.326,0.018-0.444
				c1.932-1.784,4.052-1.276,4.142-1.253c0.168,0.043,0.27,0.212,0.227,0.38c-0.041,0.168-0.212,0.272-0.38,0.229
				c-0.078-0.019-1.89-0.441-3.563,1.106C218.791,169.384,218.715,169.412,218.639,169.412z"/>
			<path style="fill:#263238;" d="M235.255,171.053c-0.121,0-0.237-0.071-0.288-0.189c-0.915-2.103-2.796-2.443-2.815-2.446
				c-0.171-0.029-0.287-0.191-0.258-0.362c0.028-0.171,0.193-0.287,0.362-0.258c0.091,0.016,2.238,0.403,3.287,2.815
				c0.069,0.159-0.003,0.344-0.163,0.414C235.34,171.044,235.297,171.053,235.255,171.053z"/>
			<path style="fill:#E58A7B;" d="M193.146,222.782c-0.906,2.967-1.887,6.041-2.752,9.08c-0.91,3.04-1.796,6.082-2.583,9.124
				c-0.774,3.042-1.538,6.073-2.101,9.046c-0.272,1.481-0.521,2.947-0.665,4.326c-0.077,0.693-0.113,1.343-0.129,1.948
				c-0.003,0.132-0.022-0.038-0.1-0.234c-0.084-0.187-0.265-0.524-0.492-0.726c-0.51-0.448-0.704-0.365-0.471-0.295
				c0.212,0.079,0.719,0.132,1.272,0.127c1.137-0.004,2.546-0.219,3.952-0.51c2.854-0.579,5.829-1.51,8.791-2.505
				c5.914-2.047,11.907-4.443,17.753-6.933l2.579,4.716c-5.569,3.611-11.249,6.856-17.332,9.674
				c-3.046,1.407-6.167,2.695-9.584,3.729c-1.731,0.49-3.505,0.939-5.602,1.134c-1.059,0.085-2.184,0.132-3.565-0.089
				c-0.699-0.125-1.434-0.286-2.268-0.657c-0.818-0.364-1.714-0.891-2.501-1.711c-1.645-1.603-2.218-4.023-2.229-5.403
				c-0.051-1.014-0.056-1.982-0.019-2.904c0.069-1.851,0.24-3.598,0.475-5.312c0.474-3.417,1.097-6.714,1.859-9.959
				c0.751-3.245,1.564-6.451,2.453-9.628c0.939-3.176,1.85-6.294,2.967-9.475L193.146,222.782z"/>
			<path style="fill:#407BFF;" d="M258.82,397.837c-0.954,0-2.002-0.199-2.734-0.372c-0.067-0.017-0.119-0.071-0.132-0.14
				c-0.012-0.068,0.018-0.138,0.076-0.176c0.353-0.231,3.473-2.25,4.656-1.72c0.25,0.113,0.405,0.334,0.448,0.637
				c0.074,0.526-0.056,0.945-0.386,1.246C260.32,397.703,259.602,397.837,258.82,397.837z M256.574,397.217
				c1.921,0.406,3.379,0.352,3.94-0.162c0.242-0.221,0.333-0.528,0.275-0.939c-0.026-0.186-0.104-0.304-0.246-0.368
				C259.783,395.405,257.672,396.541,256.574,397.217z"/>
			<path style="fill:#407BFF;" d="M256.126,397.469c-0.03,0-0.061-0.008-0.088-0.023c-0.054-0.031-0.086-0.089-0.086-0.15
				c0-0.126,0.013-3.089,1.12-4.068c0.283-0.252,0.605-0.357,0.986-0.312c0.543,0.066,0.717,0.379,0.767,0.63
				c0.216,1.078-1.521,3.282-2.613,3.901C256.185,397.462,256.155,397.469,256.126,397.469z M257.895,393.253
				c-0.22,0-0.414,0.077-0.592,0.234c-0.79,0.699-0.957,2.686-0.993,3.477c0.97-0.727,2.336-2.542,2.174-3.351
				c-0.025-0.13-0.103-0.308-0.468-0.353C257.975,393.256,257.934,393.253,257.895,393.253z"/>
			<path style="fill:#407BFF;" d="M299.579,397.839c-1.14,0-2.385-0.197-3.267-0.373c-0.072-0.015-0.128-0.073-0.139-0.146
				c-0.01-0.073,0.026-0.145,0.093-0.179c0.465-0.242,4.577-2.342,5.82-1.664c0.225,0.123,0.357,0.33,0.381,0.599
				c0.042,0.468-0.1,0.851-0.422,1.14C301.526,397.683,300.594,397.839,299.579,397.839z M296.887,397.218
				c1.346,0.233,4.01,0.564,4.927-0.262c0.238-0.215,0.339-0.492,0.307-0.85c-0.014-0.153-0.077-0.257-0.2-0.324
				C301.104,395.336,298.338,396.51,296.887,397.218z"/>
			<path style="fill:#407BFF;" d="M296.347,397.469c-0.035,0-0.07-0.011-0.101-0.031c-0.05-0.036-0.078-0.095-0.073-0.156
				c0.01-0.118,0.247-2.888,1.531-3.958c0.385-0.32,0.823-0.458,1.31-0.408c0.638,0.064,0.82,0.381,0.861,0.635
				c0.187,1.149-2.234,3.352-3.458,3.904C296.395,397.464,296.371,397.469,296.347,397.469z M298.823,393.253
				c-0.33,0-0.624,0.111-0.896,0.338c-0.933,0.777-1.271,2.653-1.37,3.402c1.316-0.737,3.102-2.616,2.976-3.387
				c-0.012-0.073-0.048-0.294-0.553-0.346C298.927,393.256,298.874,393.253,298.823,393.253z"/>
			<path style="fill:#E58A7B;" d="M215.427,245.345l9.867-2.5l-4.701,9.475c0,0-6.673,0.285-8.875-3.436L215.427,245.345z"/>
			<polygon style="fill:#E58A7B;" points="233.263,246.445 228.898,254.165 220.593,252.321 225.293,242.846 			"/>
			<path style="fill:#263238;" d="M221.825,171.779l2.086-0.217C223.91,171.562,222.615,172.929,221.825,171.779z"/>
			<path style="fill:#407BFF;" d="M193.692,268.333l-0.337,3.781c-0.148,0.293,0.2,0.592,0.688,0.592h42.734
				c0.381,0,0.696-0.186,0.72-0.426l0.381-3.781c0.026-0.262-0.304-0.484-0.72-0.484H194.38
				C194.065,268.016,193.787,268.144,193.692,268.333z"/>
			<g>
				<path style="fill:#263238;" d="M199.437,273.116h-1.146c-0.228,0-0.402-0.118-0.386-0.261l0.537-4.913
					c0.016-0.144,0.215-0.261,0.443-0.261h1.146c0.228,0,0.402,0.118,0.386,0.261l-0.537,4.913
					C199.865,272.999,199.665,273.116,199.437,273.116z"/>
				<path style="fill:#263238;" d="M233.557,273.116h-1.146c-0.228,0-0.402-0.118-0.386-0.261l0.537-4.913
					c0.016-0.144,0.215-0.261,0.443-0.261h1.146c0.228,0,0.402,0.118,0.386,0.261L234,272.855
					C233.984,272.999,233.785,273.116,233.557,273.116z"/>
				<path style="fill:#263238;" d="M216.497,273.116h-1.146c-0.228,0-0.402-0.118-0.386-0.261l0.537-4.913
					c0.016-0.144,0.215-0.261,0.443-0.261h1.146c0.228,0,0.402,0.118,0.386,0.261l-0.537,4.913
					C216.924,272.999,216.725,273.116,216.497,273.116z"/>
			</g>
			<g>
				<path style="fill:#407BFF;" d="M186.836,207.734c-4.232,1.287-9.315,15.86-9.315,15.86l13.647,13.323
					c0,0,8.761-13.749,6.983-19.219C196.298,212.001,191.665,206.265,186.836,207.734z"/>
				<path style="opacity:0.5;fill:#FFFFFF;" d="M186.836,207.734c-4.232,1.287-9.315,15.86-9.315,15.86l13.647,13.323
					c0,0,8.761-13.749,6.983-19.219C196.298,212.001,191.665,206.265,186.836,207.734z"/>
			</g>
		</g>
	</g>
</g>
<g id="Desk">
	<g>
		<g>
			<rect x="334.096" y="260.423" style="fill:#407BFF;" width="79.56" height="154.754"/>
			<rect x="334.096" y="260.423" style="opacity:0.6;fill:#FFFFFF;" width="79.56" height="154.754"/>
		</g>
		<g>
			<rect x="179.975" y="260.423" style="fill:#407BFF;" width="79.56" height="154.754"/>
			<rect x="179.975" y="260.423" style="opacity:0.6;fill:#FFFFFF;" width="79.56" height="154.754"/>
		</g>
		<g>
			<rect x="410.076" y="260.423" style="fill:#407BFF;" width="6.561" height="154.754"/>
			<rect x="410.076" y="260.423" style="opacity:0.3;" width="6.561" height="154.754"/>
		</g>
		<g>
			
				<rect x="260.484" y="260.423" transform="matrix(-1 -1.224647e-16 1.224647e-16 -1 679.1529 532.4529)" style="fill:#407BFF;" width="158.186" height="11.607"/>
			
				<rect x="260.484" y="260.423" transform="matrix(-1 -1.224647e-16 1.224647e-16 -1 679.1529 532.4529)" style="opacity:0.3;" width="158.186" height="11.607"/>
		</g>
		<g>
			<rect x="255.955" y="260.423" style="fill:#407BFF;" width="6.561" height="154.754"/>
			<rect x="255.955" y="260.423" style="opacity:0.3;" width="6.561" height="154.754"/>
		</g>
		<g>
			
				<rect x="260.1" y="264.004" transform="matrix(-1 -1.224647e-16 1.224647e-16 -1 673.4565 561.4425)" style="fill:#407BFF;" width="153.257" height="33.434"/>
			
				<rect x="260.1" y="264.004" transform="matrix(-1 -1.224647e-16 1.224647e-16 -1 673.4565 561.4425)" style="opacity:0.3;" width="153.257" height="33.434"/>
		</g>
		<g>
			<path style="fill:#407BFF;" d="M413.699,419.667h-44.173c-6.234,0-11.307-5.072-11.307-11.308V269.044
				c0-5.52-4.49-10.01-10.01-10.01H335v-1h13.21c6.071,0,11.01,4.939,11.01,11.01v139.315c0,5.684,4.624,10.308,10.307,10.308
				h44.173c1.9,0,2.996-1.265,3.387-2.447c0.392-1.184,0.267-2.852-1.26-3.985l0.596-0.803c1.61,1.195,2.243,3.198,1.614,5.102
				C417.406,418.438,415.704,419.667,413.699,419.667z"/>
			<path style="opacity:0.3;" d="M413.699,419.667h-44.173c-6.234,0-11.307-5.072-11.307-11.308V269.044
				c0-5.52-4.49-10.01-10.01-10.01H335v-1h13.21c6.071,0,11.01,4.939,11.01,11.01v139.315c0,5.684,4.624,10.308,10.307,10.308
				h44.173c1.9,0,2.996-1.265,3.387-2.447c0.392-1.184,0.267-2.852-1.26-3.985l0.596-0.803c1.61,1.195,2.243,3.198,1.614,5.102
				C417.406,418.438,415.704,419.667,413.699,419.667z"/>
		</g>
		<g>
			<g>
				<rect x="419.137" y="306.083" style="fill:#407BFF;" width="1" height="19.334"/>
				<rect x="419.137" y="306.083" style="opacity:0.3;" width="1" height="19.334"/>
			</g>
			<g>
				<rect x="419.137" y="294.667" style="fill:#407BFF;" width="1" height="5.083"/>
				<rect x="419.137" y="294.667" style="opacity:0.3;" width="1" height="5.083"/>
			</g>
		</g>
	</g>
</g>
<g id="Computer">
	<g>
		<g>
			<polygon style="fill:#407BFF;" points="346.896,214.222 272.76,214.222 262.016,258 336.151,258 			"/>
			<polygon style="opacity:0.4;fill:#FFFFFF;" points="346.896,214.222 272.76,214.222 262.016,258 336.151,258 			"/>
		</g>
		<g>
			<polygon style="fill:#407BFF;" points="264.294,258 263.994,260.42 234.896,260.42 235.196,258 			"/>
			<polygon style="opacity:0.4;fill:#FFFFFF;" points="264.294,258 263.994,260.42 234.896,260.42 235.196,258 			"/>
		</g>
		<g>
			<polygon style="fill:#407BFF;" points="338.433,258 338.133,260.42 263.994,260.42 264.294,258 			"/>
			<polygon style="opacity:0.5;" points="338.433,258 338.133,260.42 263.994,260.42 264.294,258 			"/>
		</g>
		<g>
			<polygon style="fill:#407BFF;" points="349.177,214.222 275.042,214.222 264.298,258 338.433,258 			"/>
			<polygon style="opacity:0.5;" points="349.177,214.222 275.042,214.222 264.298,258 338.433,258 			"/>
		</g>
	</g>
</g>
<g id="Plant">
	<g>
		<path style="fill:#407BFF;" d="M377.812,249.39c0,0-10.91-18.807,4.226-33.778c0,0,3.951,2.575,3.89,6.036
			c-0.061,3.461-4.23,4.337-3.334,7.226c0.896,2.889,4.833,5.723,2.249,8.111c-2.584,2.388,0.416,4.514,0.242,7.439
			C384.909,247.351,377.812,249.39,377.812,249.39z"/>
		<g>
			<path style="fill:#407BFF;" d="M378.64,251.109c0,0,4.423-21.287-14.661-30.722c0,0-2.937,3.689-1.788,6.955
				c1.149,3.266,5.382,2.782,5.443,5.806c0.061,3.024-2.782,6.955,0.423,8.406c3.205,1.451,1.028,4.415,2.117,7.136
				C371.262,251.412,378.64,251.109,378.64,251.109z"/>
			<path style="opacity:0.5;" d="M378.64,251.109c0,0,4.423-21.287-14.661-30.722c0,0-2.937,3.689-1.788,6.955
				c1.149,3.266,5.382,2.782,5.443,5.806c0.061,3.024-2.782,6.955,0.423,8.406c3.205,1.451,1.028,4.415,2.117,7.136
				C371.262,251.412,378.64,251.109,378.64,251.109z"/>
		</g>
		<g>
			<path style="fill:#407BFF;" d="M361.924,246.392c0,0,0.363,14.03,14.272,14.03c13.91,0,14.272-14.03,14.272-14.03H361.924z"/>
			<path style="opacity:0.5;" d="M361.924,246.392c0,0,0.363,14.03,14.272,14.03c13.91,0,14.272-14.03,14.272-14.03H361.924z"/>
		</g>
	</g>
</g>
<g id="Graphics">
	<g>
		<polygon style="fill:#407BFF;" points="287.148,154.658 275.267,139.312 263.386,154.658 268.977,154.658 268.977,174.531 
			281.557,174.531 281.557,154.658 		"/>
		<g>
			<path style="fill:#407BFF;" d="M322.006,172.711c0-7.423,2.959-14.552,8.204-19.796c5.245-5.245,12.374-8.204,19.797-8.204v7.305
				c-11.427,0-20.695,9.268-20.695,20.695H322.006z"/>
			<g>
				<path style="fill:#407BFF;" d="M322.006,172.711h7.305c0,11.437,9.268,20.695,20.695,20.695c3.77,0,7.305-1.006,10.343-2.774
					l3.653,6.329c-13.302,7.676-30.559,3.047-38.245-10.255C323.304,182.458,322.006,177.624,322.006,172.711z"/>
				<path style="opacity:0.5;fill:#FFFFFF;" d="M322.006,172.711h7.305c0,11.437,9.268,20.695,20.695,20.695
					c3.77,0,7.305-1.006,10.343-2.774l3.653,6.329c-13.302,7.676-30.559,3.047-38.245-10.255
					C323.304,182.458,322.006,177.624,322.006,172.711z"/>
			</g>
			<g>
				<path style="fill:#407BFF;" d="M350.006,152.016v-7.305c15.46,0,28,12.54,28,28c0,10.362-5.635,19.415-14.005,24.25
					l-3.653-6.329c6.192-3.565,10.352-10.255,10.352-17.921C370.701,161.284,361.432,152.016,350.006,152.016z"/>
				<path style="opacity:0.7;" d="M350.006,152.016v-7.305c15.46,0,28,12.54,28,28c0,10.362-5.635,19.415-14.005,24.25l-3.653-6.329
					c6.192-3.565,10.352-10.255,10.352-17.921C370.701,161.284,361.432,152.016,350.006,152.016z"/>
			</g>
		</g>
		<g>
			<path style="fill:#263238;" d="M323.708,104.024h-25.511c-1.893,0-3.427,1.534-3.427,3.427V154.6
				c0,1.893,1.534,3.427,3.427,3.427h32.651c1.893,0,3.427-1.534,3.427-3.427v-40.01L323.708,104.024z"/>
			<g>
				<path style="fill:#407BFF;" d="M322.212,153.308h-21.227c-0.823,0-1.496-0.673-1.496-1.497l0,0c0-0.823,0.673-1.497,1.496-1.497
					h21.227c0.823,0,1.496,0.674,1.496,1.497l0,0C323.708,152.635,323.035,153.308,322.212,153.308z"/>
			</g>
			<g>
				<path style="fill:#407BFF;" d="M312.212,111.735h-11.227c-0.823,0-1.496-0.673-1.496-1.496l0,0c0-0.823,0.673-1.497,1.496-1.497
					h11.227c0.823,0,1.496,0.674,1.496,1.497l0,0C313.709,111.062,313.035,111.735,312.212,111.735z"/>
			</g>
			<g>
				<path style="fill:#407BFF;" d="M319.536,117.674h-18.551c-0.823,0-1.496-0.674-1.496-1.497l0,0c0-0.823,0.673-1.496,1.496-1.496
					h18.551c0.823,0,1.496,0.673,1.496,1.496l0,0C321.033,117.001,320.359,117.674,319.536,117.674z"/>
			</g>
			<g>
				<path style="fill:#407BFF;" d="M328.06,123.613h-27.074c-0.823,0-1.496-0.673-1.496-1.496l0,0c0-0.823,0.673-1.496,1.496-1.496
					h27.074c0.823,0,1.496,0.673,1.496,1.496l0,0C329.556,122.94,328.883,123.613,328.06,123.613z"/>
			</g>
			<g>
				<path style="fill:#407BFF;" d="M328.06,129.552h-15.74c-0.823,0-1.497-0.673-1.497-1.497l0,0c0-0.823,0.673-1.497,1.497-1.497
					h15.74c0.823,0,1.496,0.674,1.496,1.497l0,0C329.556,128.879,328.883,129.552,328.06,129.552z"/>
			</g>
			<g>
				<path style="fill:#407BFF;" d="M305.102,129.552h-4.117c-0.823,0-1.496-0.673-1.496-1.497l0,0c0-0.823,0.673-1.497,1.496-1.497
					h4.117c0.823,0,1.496,0.674,1.496,1.497l0,0C306.599,128.879,305.925,129.552,305.102,129.552z"/>
			</g>
			<g>
				<path style="fill:#407BFF;" d="M328.06,135.491h-27.074c-0.823,0-1.496-0.673-1.496-1.496l0,0c0-0.823,0.673-1.497,1.496-1.497
					h27.074c0.823,0,1.496,0.673,1.496,1.497l0,0C329.556,134.818,328.883,135.491,328.06,135.491z"/>
			</g>
			<g>
				<path style="fill:#407BFF;" d="M317.613,141.43h-16.627c-0.823,0-1.496-0.673-1.496-1.497l0,0c0-0.823,0.673-1.497,1.496-1.497
					h16.627c0.823,0,1.496,0.674,1.496,1.497l0,0C319.109,140.757,318.436,141.43,317.613,141.43z"/>
			</g>
			<g>
				<path style="fill:#407BFF;" d="M328.06,141.43h-4.437c-0.823,0-1.496-0.673-1.496-1.497l0,0c0-0.823,0.673-1.497,1.496-1.497
					h4.437c0.823,0,1.496,0.674,1.496,1.497l0,0C329.556,140.757,328.883,141.43,328.06,141.43z"/>
			</g>
			<g>
				<path style="fill:#407BFF;" d="M328.06,147.369h-27.074c-0.823,0-1.496-0.673-1.496-1.496l0,0c0-0.823,0.673-1.497,1.496-1.497
					h27.074c0.823,0,1.496,0.673,1.496,1.497l0,0C329.556,146.696,328.883,147.369,328.06,147.369z"/>
			</g>
			<g>
				<g style="opacity:0.5;">
					<path style="fill:#FFFFFF;" d="M322.212,153.308h-21.227c-0.823,0-1.496-0.673-1.496-1.497l0,0
						c0-0.823,0.673-1.497,1.496-1.497h21.227c0.823,0,1.496,0.674,1.496,1.497l0,0
						C323.708,152.635,323.035,153.308,322.212,153.308z"/>
				</g>
				<g style="opacity:0.5;">
					<path style="fill:#FFFFFF;" d="M312.212,111.735h-11.227c-0.823,0-1.496-0.673-1.496-1.496l0,0
						c0-0.823,0.673-1.497,1.496-1.497h11.227c0.823,0,1.496,0.674,1.496,1.497l0,0
						C313.709,111.062,313.035,111.735,312.212,111.735z"/>
				</g>
				<g style="opacity:0.5;">
					<path style="fill:#FFFFFF;" d="M319.536,117.674h-18.551c-0.823,0-1.496-0.674-1.496-1.497l0,0
						c0-0.823,0.673-1.496,1.496-1.496h18.551c0.823,0,1.496,0.673,1.496,1.496l0,0
						C321.033,117.001,320.359,117.674,319.536,117.674z"/>
				</g>
				<g style="opacity:0.5;">
					<path style="fill:#FFFFFF;" d="M328.06,123.613h-27.074c-0.823,0-1.496-0.673-1.496-1.496l0,0c0-0.823,0.673-1.496,1.496-1.496
						h27.074c0.823,0,1.496,0.673,1.496,1.496l0,0C329.556,122.94,328.883,123.613,328.06,123.613z"/>
				</g>
				<g style="opacity:0.5;">
					<path style="fill:#FFFFFF;" d="M328.06,129.552h-15.74c-0.823,0-1.497-0.673-1.497-1.497l0,0c0-0.823,0.673-1.497,1.497-1.497
						h15.74c0.823,0,1.496,0.674,1.496,1.497l0,0C329.556,128.879,328.883,129.552,328.06,129.552z"/>
				</g>
				<g style="opacity:0.5;">
					<path style="fill:#FFFFFF;" d="M305.102,129.552h-4.117c-0.823,0-1.496-0.673-1.496-1.497l0,0c0-0.823,0.673-1.497,1.496-1.497
						h4.117c0.823,0,1.496,0.674,1.496,1.497l0,0C306.599,128.879,305.925,129.552,305.102,129.552z"/>
				</g>
				<g style="opacity:0.5;">
					<path style="fill:#FFFFFF;" d="M328.06,135.491h-27.074c-0.823,0-1.496-0.673-1.496-1.496l0,0c0-0.823,0.673-1.497,1.496-1.497
						h27.074c0.823,0,1.496,0.673,1.496,1.497l0,0C329.556,134.818,328.883,135.491,328.06,135.491z"/>
				</g>
				<g style="opacity:0.5;">
					<path style="fill:#FFFFFF;" d="M317.613,141.43h-16.627c-0.823,0-1.496-0.673-1.496-1.497l0,0c0-0.823,0.673-1.497,1.496-1.497
						h16.627c0.823,0,1.496,0.674,1.496,1.497l0,0C319.109,140.757,318.436,141.43,317.613,141.43z"/>
				</g>
				<g style="opacity:0.5;">
					<path style="fill:#FFFFFF;" d="M328.06,141.43h-4.437c-0.823,0-1.496-0.673-1.496-1.497l0,0c0-0.823,0.673-1.497,1.496-1.497
						h4.437c0.823,0,1.496,0.674,1.496,1.497l0,0C329.556,140.757,328.883,141.43,328.06,141.43z"/>
				</g>
				<g style="opacity:0.5;">
					<path style="fill:#FFFFFF;" d="M328.06,147.369h-27.074c-0.823,0-1.496-0.673-1.496-1.496l0,0c0-0.823,0.673-1.497,1.496-1.497
						h27.074c0.823,0,1.496,0.673,1.496,1.497l0,0C329.556,146.696,328.883,147.369,328.06,147.369z"/>
				</g>
			</g>
			<g>
				<path style="fill:#407BFF;" d="M323.708,104.024v7.14c0,1.893,1.536,3.427,3.429,3.427h7.137L323.708,104.024z"/>
				<path style="opacity:0.5;fill:#FFFFFF;" d="M323.708,104.024v7.14c0,1.893,1.536,3.427,3.429,3.427h7.137L323.708,104.024z"/>
			</g>
		</g>
	</g>
</g>
</svg>
