<?xml version="1.0" encoding="utf-8"?>
<!-- Generator: Adobe Illustrator 27.5.0, SVG Export Plug-In . SVG Version: 6.00 Build 0)  -->
<svg version="1.1" xmlns="http://www.w3.org/2000/svg" xmlns:xlink="http://www.w3.org/1999/xlink" x="0px" y="0px"
	 viewBox="0 0 500 500" style="enable-background:new 0 0 500 500;" xml:space="preserve">
<g id="Background_Complete">
	<g>
		<rect y="382.398" style="fill:#EBEBEB;" width="500" height="0.25"/>
		<rect x="400.674" y="393.042" style="fill:#EBEBEB;" width="33.122" height="0.25"/>
		<rect x="304.382" y="392.917" style="fill:#EBEBEB;" width="8.693" height="0.25"/>
		<rect x="430.709" y="398.494" style="fill:#EBEBEB;" width="19.192" height="0.25"/>
		<rect x="71.414" y="401.806" style="fill:#EBEBEB;" width="43.193" height="0.25"/>
		<rect x="104.556" y="390.888" style="fill:#EBEBEB;" width="6.333" height="0.25"/>
		<rect x="187.546" y="391.956" style="fill:#EBEBEB;" width="60.898" height="0.25"/>
		<path style="fill:#EBEBEB;" d="M237.014,337.8H43.915c-3.147,0-5.708-2.561-5.708-5.708V60.66c0-3.147,2.561-5.708,5.708-5.708
			h193.099c3.146,0,5.707,2.561,5.707,5.708v271.432C242.721,335.239,240.16,337.8,237.014,337.8z M43.915,55.203
			c-3.01,0-5.458,2.448-5.458,5.458v271.432c0,3.01,2.448,5.458,5.458,5.458h193.099c3.009,0,5.457-2.448,5.457-5.458V60.66
			c0-3.009-2.448-5.458-5.457-5.458H43.915z"/>
		<path style="fill:#EBEBEB;" d="M453.31,337.8H260.212c-3.147,0-5.707-2.561-5.707-5.708V60.66c0-3.147,2.561-5.708,5.707-5.708
			H453.31c3.148,0,5.708,2.561,5.708,5.708v271.432C459.019,335.239,456.458,337.8,453.31,337.8z M260.212,55.203
			c-3.009,0-5.457,2.448-5.457,5.458v271.432c0,3.01,2.448,5.458,5.457,5.458H453.31c3.01,0,5.458-2.448,5.458-5.458V60.66
			c0-3.009-2.448-5.458-5.458-5.458H260.212z"/>
	</g>
	<g>
		<rect x="140.464" y="68.333" style="fill:#E0E0E0;" width="210.092" height="4.889"/>
		<path style="fill:#E0E0E0;" d="M197.083,71.567c-0.294,0-0.589-0.009-0.885-0.027c-3.596-0.223-6.873-1.821-10.042-3.368
			c-1.532-0.748-3.117-1.521-4.708-2.122c-9.691-3.661-20.239-1.541-32.028,1.381l-0.24-0.971
			c9.735-2.412,21.852-5.414,32.622-1.346c1.635,0.618,3.24,1.401,4.793,2.159c3.224,1.572,6.268,3.058,9.665,3.269
			c3.961,0.245,7.626-1.284,11.501-2.901c1.928-0.806,3.922-1.638,5.943-2.223c8.83-2.552,18.045-0.409,26.958,1.664
			c8.13,1.891,16.537,3.849,24.609,2.225c2.273-0.457,4.538-1.206,6.729-1.932c3.158-1.045,6.424-2.126,9.819-2.372
			c3.162-0.228,6.35,0.272,9.433,0.758c3.688,0.582,7.5,1.181,11.154,0.476c3.178-0.612,6.133-2.192,8.99-3.721
			c1.152-0.616,2.343-1.253,3.541-1.823c7.572-3.605,16.305-4.866,24.587-3.554l-0.156,0.988
			c-8.085-1.282-16.609-0.052-24.001,3.468c-1.176,0.561-2.357,1.192-3.499,1.803c-2.923,1.563-5.945,3.181-9.272,3.821
			c-3.828,0.736-7.727,0.123-11.499-0.47c-3.027-0.477-6.158-0.972-9.205-0.748c-3.27,0.236-6.477,1.298-9.577,2.324
			c-2.218,0.733-4.513,1.493-6.845,1.962c-8.285,1.666-16.8-0.315-25.033-2.232c-8.788-2.044-17.875-4.159-26.453-1.677
			c-1.967,0.568-3.934,1.39-5.836,2.185C204.604,70.042,200.951,71.567,197.083,71.567z"/>
		<g>
			<g>
				<polygon style="fill:#E0E0E0;" points="188.896,45 60.006,45 51.917,120.222 180.807,120.222 				"/>
				<polygon style="fill:#F5F5F5;" points="57.483,115.223 64.497,50 183.329,50 176.315,115.223 				"/>
			</g>
			<g>
				<polygon style="fill:#E0E0E0;" points="311.104,45 439.994,45 448.083,120.222 319.194,120.222 				"/>
				<polygon style="fill:#F5F5F5;" points="442.517,115.223 435.503,50 316.671,50 323.685,115.223 				"/>
			</g>
		</g>
		<g>
			<path style="fill:#EBEBEB;" d="M143.987,140.556h-4.111c-3.713,0-6.722,3.01-6.722,6.722v235.121h17.555V147.278
				C150.709,143.565,147.699,140.556,143.987,140.556z"/>
			<rect x="150.709" y="146.667" style="fill:#F5F5F5;" width="262.444" height="200.778"/>
			<polygon style="fill:#EBEBEB;" points="322.78,238.7 267.222,183.142 150.709,183.14 150.709,190 264.38,190 319.94,245.56 
				421.93,245.56 421.93,238.7 			"/>
			<polygon style="fill:#FAFAFA;" points="322.78,330.94 267.222,275.382 150.709,275.38 150.709,282.24 264.38,282.24 
				319.94,337.8 413.153,337.8 413.153,330.94 			"/>
			<polygon style="fill:#EBEBEB;" points="315.52,257.811 259.961,202.253 150.709,202.251 150.709,209.111 257.12,209.111 
				312.679,264.671 421.93,264.671 421.93,257.811 			"/>
			<path style="fill:#EBEBEB;" d="M84.671,162.496h-3.738c-3.376,0-6.112,2.737-6.112,6.112v213.79h15.963v-213.79
				C90.783,165.232,88.046,162.496,84.671,162.496z"/>
			<rect x="90.783" y="168.053" style="fill:#F5F5F5;" width="42.37" height="175.17"/>
			<rect x="126.333" y="168.053" style="fill:#F0F0F0;" width="6.82" height="175.17"/>
			<path style="fill:#EBEBEB;" d="M423.987,140.556h-4.111c-3.713,0-6.722,3.01-6.722,6.722v235.121h17.556V147.278
				C430.709,143.565,427.699,140.556,423.987,140.556z"/>
		</g>
	</g>
</g>
<g id="Background_Simple" style="display:none;">
	<g style="display:inline;">
		<path style="fill:#407BFF;" d="M248.501,115.939c34.405-17.588,62.202-54.652,105.654-49.793
			c32.626,3.648,49.437,31.559,54.009,62.62c12.006,81.575-94.524,143.11-165.63,152.582
			c-73.645,9.81-175.83-22.514-162.536-106.951c5.479-34.801,33.722-52.932,70.789-58.493
			C182.279,111.178,221.537,129.723,248.501,115.939z"/>
		<path style="opacity:0.9;fill:#FFFFFF;" d="M248.501,115.939c34.405-17.588,62.202-54.652,105.654-49.793
			c32.626,3.648,49.437,31.559,54.009,62.62c12.006,81.575-94.524,143.11-165.63,152.582
			c-73.645,9.81-175.83-22.514-162.536-106.951c5.479-34.801,33.722-52.932,70.789-58.493
			C182.279,111.178,221.537,129.723,248.501,115.939z"/>
	</g>
</g>
<g id="Shadow_1_">
	<ellipse id="_x3C_Path_x3E__296_" style="fill:#F5F5F5;" cx="250" cy="416.238" rx="193.889" ry="11.323"/>
</g>
<g id="Character_1_">
	<g>
		<g>
			<path style="fill:#407BFF;" d="M223.135,87.65c3.489,0.418,3.064,3.783,0.277,4.658c-2.786,0.875-13.278,0.331-13.278,0.331
				L223.135,87.65z"/>
			<path style="opacity:0.2;" d="M223.135,87.65c3.489,0.418,3.064,3.783,0.277,4.658c-2.786,0.875-13.278,0.331-13.278,0.331
				L223.135,87.65z"/>
		</g>
		<path style="fill:#263238;" d="M187.16,96.358c-3.278,3.556-3.611,13.444-1.278,19.389c2.333,5.944,11.833,8.278,19.944,5.611
			c8.111-2.667,12.889-10.511,12.889-10.511s1,2.233,5.389,3.177c-0.5-3.111-3.389-18.667-7.667-23.556
			C212.16,85.58,190.938,80.303,187.16,96.358z"/>
		<path style="fill:#263238;" d="M189.382,118.025c-6.778,2.944-7.572,9.889-1.814,12.722c5.758,2.833,12.036-3.389,10.814-9.167
			C197.16,115.803,189.382,118.025,189.382,118.025z"/>
		<path style="fill:#CF7A64;" d="M229.324,151.01l1.26,3.505c0.438,1.192,0.903,2.377,1.376,3.557
			c0.93,2.366,1.927,4.697,2.972,6.979c1.069,2.265,2.143,4.525,3.379,6.609c0.294,0.542,0.621,1.03,0.928,1.549
			c0.305,0.523,0.626,1.02,0.962,1.492l0.494,0.726l0.123,0.182c0.011,0.017,0.063,0.09,0.04,0.062
			c-0.043-0.055-0.09-0.108-0.139-0.159c-0.175-0.172-0.491-0.45-0.871-0.641c-0.393-0.208-0.864-0.347-1.277-0.385
			c-0.184-0.028-0.413-0.018-0.561-0.01c-0.143,0.004-0.296,0.029-0.425,0.061c-0.447,0.105-0.533,0.192-0.558,0.218
			c0.019,0.016,0.354-0.183,0.683-0.467c0.341-0.286,0.721-0.654,1.101-1.054c0.765-0.806,1.54-1.745,2.298-2.719
			c1.548-1.939,3.008-4.066,4.481-6.2c2.896-4.299,5.768-8.763,8.575-13.195l4.841,2.355c-1.908,5.099-4.032,10.031-6.518,14.903
			c-1.231,2.444-2.571,4.842-4.074,7.259c-0.769,1.201-1.583,2.398-2.54,3.617c-0.483,0.611-1,1.226-1.617,1.861
			c-0.631,0.633-1.318,1.3-2.446,1.991c-0.607,0.344-1.301,0.716-2.403,0.953c-0.293,0.055-0.612,0.095-0.92,0.118
			c-0.314,0.023-0.709,0.005-1.059-0.028c-0.741-0.081-1.535-0.315-2.219-0.684c-0.668-0.352-1.255-0.832-1.646-1.256l-0.31-0.34
			l-0.113-0.135l-0.177-0.216l-0.707-0.866c-0.483-0.576-0.935-1.16-1.355-1.752c-0.424-0.591-0.884-1.177-1.262-1.783
			c-1.621-2.402-3.034-4.852-4.321-7.351c-1.297-2.492-2.455-5.025-3.517-7.588c-0.513-1.289-1.016-2.58-1.492-3.885
			c-0.491-1.319-0.919-2.579-1.355-4.029L229.324,151.01z"/>
		<path style="fill:#407BFF;" d="M224.058,140.715c11.039,5.173,11.174,20.088,11.174,20.088l-13.564,6.549
			c0,0-8.187-12.582-7.179-18.064C215.541,143.568,217.846,137.804,224.058,140.715z"/>
		<path style="opacity:0.2;" d="M220.583,151.951c2.387,1.47,6.041,6.953,7.768,12.172l-6.686,3.233c0,0-5.138-7.908-6.769-13.918
			C215.572,151.689,217.556,150.28,220.583,151.951z"/>
		<path style="fill:#CE7A63;" d="M253.497,147.635l4.334-4.411l5.188,7.581c0,0-4.312,5.395-9.924,3.832l-0.586-3.967
			C252.344,149.559,252.71,148.436,253.497,147.635z"/>
		<polygon style="fill:#CE7A63;" points="262.435,138.69 265.663,141.781 263.019,150.805 257.831,143.224 		"/>
		<polygon style="fill:#CE7A63;" points="181.107,406.191 191.073,407.142 195.617,383.968 185.651,383.017 		"/>
		<polygon style="fill:#CE7A63;" points="121.564,379.807 130.006,385.225 142.367,365.288 133.925,359.87 		"/>
		<path style="fill:#263238;" d="M131.733,382.568l-7.208-8.734c-0.262-0.318-0.696-0.393-1.043-0.182l-7.731,4.708
			c-0.802,0.488-0.971,1.665-0.354,2.387c2.565,3.002,3.955,4.321,7.125,8.162c1.95,2.363,5.916,7.876,8.609,11.139
			c2.634,3.191,6.063,0.774,5.234-0.826c-3.718-7.173-4.068-11.486-4.038-14.961C132.333,383.635,132.117,383.032,131.733,382.568z"
			/>
		<path style="fill:#263238;" d="M192.321,404.134h-11.957c-0.435,0-0.828,0.302-0.944,0.727l-2.6,9.461
			c-0.27,0.981,0.453,1.884,1.459,1.893c4.214,0.038,6.211,0.02,11.47,0.02c3.235,0,11.604,0,16.072,0
			c4.369,0,5.283-4.417,3.475-4.818c-8.106-1.794-12.779-4.268-15.28-6.628C193.563,404.363,192.957,404.134,192.321,404.134z"/>
		<polygon style="opacity:0.2;" points="195.614,383.974 193.273,395.92 183.117,395.92 185.644,383.022 		"/>
		<polygon style="opacity:0.2;" points="133.92,359.874 142.365,365.294 135.989,375.569 127.544,370.148 		"/>
		<path style="fill:#407BFF;" d="M227.25,146.694c-0.324,6.66-2.5,21.524-10.868,54.64l-40.784-3.527
			c2.12-16.54,3.025-26.773-1.962-61.524c0,0,8.706-1.12,17.516-0.784c6.892,0.263,12.534,0.53,18.519,1.602
			c4.502,0.806,9.404,2.064,12.785,2.996C225.403,140.908,227.399,143.641,227.25,146.694z"/>
		<path style="opacity:0.2;" d="M180.371,151.66c1.755,3.725,1.098,16.188-3.116,20.546c-0.131-5.026-0.537-10.804-1.313-17.943
			C177.04,152.758,178.496,151.767,180.371,151.66z"/>
		<path style="fill:#FFFFFF;" d="M197.782,155.171c-0.41,0-0.804-0.148-1.12-0.431c-6.636-5.907-13.017-14.056-11.343-17.985
			c0.742-1.743,2.954-2.484,6.582-2.198c0.045,0.003,0.089,0.02,0.126,0.046l13.434,9.65c0.059,0.043,0.097,0.108,0.103,0.181
			c0.006,0.073-0.019,0.145-0.07,0.197c-0.038,0.039-3.824,3.968-6.098,9.453c-0.219,0.527-0.678,0.918-1.229,1.044
			C198.039,155.156,197.909,155.171,197.782,155.171z M190.455,134.996c-2.552,0-4.122,0.655-4.676,1.955
			c-1.507,3.537,4.502,11.439,11.215,17.416c0.293,0.26,0.68,0.358,1.062,0.272c0.394-0.09,0.722-0.37,0.879-0.748
			c2.01-4.851,5.185-8.504,6.004-9.399l-13.146-9.442C191.32,135.014,190.874,134.996,190.455,134.996z"/>
		<path style="fill:#FFFFFF;" d="M213.152,155.455c-0.051,0-0.102-0.002-0.153-0.007c-0.661-0.058-1.223-0.479-1.466-1.1
			c-2.105-5.366-5.5-9.28-5.534-9.318c-0.058-0.066-0.077-0.158-0.05-0.241l2.714-8.435c0.038-0.118,0.15-0.187,0.277-0.171
			c3.856,0.613,6.45,2.311,7.711,5.043c1.953,4.232,0.12,9.869-2.043,13.409C214.294,155.15,213.746,155.455,213.152,155.455z
			 M206.469,144.81c0.565,0.674,3.589,4.407,5.531,9.357c0.176,0.448,0.566,0.741,1.044,0.783c0.464,0.048,0.894-0.174,1.139-0.574
			c2.099-3.436,3.886-8.887,2.016-12.941c-1.164-2.522-3.56-4.11-7.124-4.723L206.469,144.81z"/>
		<path style="fill:#CE7A63;" d="M194.791,114.804c0.653,6.06,0.874,17.079-3.639,20.694c0,0,4.821,4.92,14.568,10.35
			c7.091-4.9,3.951-8.748,3.951-8.748c-6.507-2.162-5.91-7.077-4.352-11.606L194.791,114.804z"/>
		<path style="opacity:0.2;" d="M199.083,119.166l6.232,6.323c-0.372,1.072-0.685,2.164-0.855,3.238
			c-2.507-0.587-6.136-3.191-6.175-5.873C198.265,121.517,198.813,119.765,199.083,119.166z"/>
		<path style="fill:#CE7A63;" d="M189.46,105.337c2.528,9.679,3.391,13.83,9.328,17.885c8.93,6.101,20.266,0.88,20.681-9.359
			c0.374-9.216-3.823-23.496-14.179-25.51C195.086,86.369,186.932,95.658,189.46,105.337z"/>
		<path style="fill:#263238;" d="M191.152,111.08c11.174-4.278,17.508-17.444,17.508-17.444l7.146,1.611c0,0-2.613-7.722-10.491-8
			c-7.878-0.278-12.973,0.556-17.092,9.611C184.104,105.914,191.152,111.08,191.152,111.08z"/>
		<path style="fill:#407BFF;" d="M185.306,104.005c3.163-2.216,13.869-9.31,27.849-14.186c0.542-0.189,0.84-0.768,0.663-1.314
			c-0.829-2.549-3.213-7.035-4.859-7.774c-1.887-0.848-12.751-1.641-17.763,0.473c-5.012,2.114-9.972,10.124-10.697,11.962
			c-0.575,1.457,1.945,7.994,3.277,10.478C184.074,104.2,184.788,104.368,185.306,104.005z"/>
		<path style="fill:#FFFFFF;" d="M210.512,87.57l-5.822,1.568c-0.182,0.049-0.399-0.091-0.533-0.343l-1.415-2.649
			c-0.204-0.383-0.133-0.842,0.142-0.916l5.822-1.568c0.182-0.049,0.399,0.091,0.534,0.343l1.415,2.649
			C210.858,87.037,210.787,87.496,210.512,87.57z"/>
		<path style="fill:#407BFF;" d="M193.78,98.691c7.991-2.507,17.081-2.735,20.383-4.952c3.302-2.217,2.114-3.538,8.971-6.089
			c-4.791-0.55-9.415,0.569-9.415,0.569S196.922,94.692,193.78,98.691z"/>
		<path style="fill:#CE7A63;" d="M188.661,113.546c0.952,1.842,2.666,3.074,4.298,3.565c2.455,0.739,3.733-1.444,3.093-3.788
			c-0.576-2.109-2.547-5.035-5.031-4.748C188.573,108.857,187.572,111.439,188.661,113.546z"/>
		<path style="fill:#263238;" d="M216.383,201.334c0,0,13.799,61.042,4.587,104.076c-6.169,28.822-23.505,87.047-23.505,87.047
			l-15.563-0.447c0,0,10.096-61.102,13.579-85.132c5.956-41.104-8.963-108.127-8.963-108.127L216.383,201.334z"/>
		<path style="opacity:0.2;" d="M200.471,213.66l-8.698,13.719c2.213,14.225,4.415,32.017,4.977,49.138
			C208.982,254.617,203.191,225.253,200.471,213.66z"/>
		<polygon style="fill:#407BFF;" points="198.549,393.358 179.988,392.81 181.231,386.207 200.229,387.247 		"/>
		<path style="fill:#263238;" d="M207.466,200.684c0,0-9.077,63.869-25.591,99.705c-13.339,28.945-40.706,71.999-40.706,71.999
			l-12.572-6.037c0,0,16.521-43.03,28.973-69.826c22.415-48.235,3.39-81.646,18.029-98.718L207.466,200.684z"/>
		<polygon style="fill:#407BFF;" points="141.832,375 126.529,366.662 128.992,360.12 145.304,369.259 		"/>
		<path style="fill:#407BFF;" d="M175.195,195.361l-2.155,3.492c-0.167,0.271,0.143,0.589,0.615,0.63l42.771,3.699
			c0.368,0.032,0.688-0.122,0.731-0.351l0.684-3.619c0.047-0.251-0.253-0.492-0.655-0.527l-41.3-3.572
			C175.582,195.085,175.303,195.186,175.195,195.361z"/>
		<path style="fill:#263238;" d="M180.342,200.458l-1.106-0.096c-0.22-0.019-0.378-0.147-0.351-0.285l0.929-4.698
			c0.027-0.137,0.23-0.234,0.45-0.215l1.106,0.096c0.22,0.019,0.378,0.147,0.351,0.285l-0.929,4.698
			C180.765,200.38,180.563,200.477,180.342,200.458z"/>
		<path style="fill:#263238;" d="M213.283,203.307l-1.106-0.096c-0.22-0.019-0.378-0.147-0.351-0.285l0.929-4.698
			c0.027-0.137,0.23-0.234,0.45-0.215l1.106,0.096c0.22,0.019,0.378,0.147,0.351,0.285l-0.929,4.698
			C213.706,203.23,213.504,203.326,213.283,203.307z"/>
		<path style="fill:#263238;" d="M196.813,201.883l-1.106-0.096c-0.22-0.019-0.378-0.147-0.351-0.285l0.929-4.698
			c0.027-0.137,0.23-0.234,0.45-0.215l1.106,0.096c0.22,0.019,0.378,0.147,0.351,0.285l-0.929,4.698
			C197.236,201.805,197.033,201.902,196.813,201.883z"/>
		<path style="fill:#263238;" d="M205.845,105.005c0.157,0.798,0.707,1.361,1.228,1.259c0.521-0.103,0.817-0.832,0.66-1.63
			c-0.157-0.798-0.707-1.361-1.228-1.259C205.984,103.477,205.688,104.207,205.845,105.005z"/>
		<path style="fill:#263238;" d="M214.862,103.232c0.157,0.798,0.707,1.361,1.228,1.259c0.521-0.103,0.817-0.832,0.66-1.63
			c-0.157-0.798-0.707-1.361-1.228-1.259C215,101.705,214.705,102.434,214.862,103.232z"/>
		<path style="fill:#263238;" d="M215.3,101.691l1.807-0.929C217.108,100.763,216.419,102.452,215.3,101.691z"/>
		<path style="fill:#BA4D3C;" d="M211.762,105.22c0,0,2.029,3.168,3.845,4.532c-0.86,1.19-2.739,1.093-2.739,1.093L211.762,105.22z"
			/>
		<path style="fill:#263238;" d="M209.179,114.648c-2.825,0-4.466-1.648-4.545-1.729c-0.076-0.079-0.074-0.204,0.004-0.281
			c0.077-0.076,0.203-0.075,0.281,0.003c0.021,0.021,2.165,2.161,5.674,1.469c0.112-0.024,0.212,0.049,0.233,0.156
			c0.022,0.108-0.049,0.212-0.156,0.233C210.142,114.603,209.644,114.648,209.179,114.648z"/>
		<path style="fill:#263238;" d="M200.429,101.912c-0.07,0-0.14-0.019-0.205-0.058c-0.188-0.114-0.248-0.357-0.134-0.545
			c1.344-2.223,3.504-2.321,3.595-2.324c0.231,0.009,0.401,0.164,0.409,0.382c0.009,0.218-0.162,0.402-0.38,0.412
			c-0.074,0.003-1.83,0.098-2.944,1.942C200.694,101.843,200.563,101.912,200.429,101.912z"/>
		<path style="fill:#263238;" d="M217.365,98.716c-0.065,0-0.132-0.016-0.193-0.051c-1.898-1.06-3.503-0.24-3.518-0.231
			c-0.195,0.103-0.435,0.027-0.536-0.167c-0.102-0.194-0.027-0.434,0.167-0.536c0.081-0.043,2.007-1.027,4.274,0.241
			c0.192,0.107,0.26,0.349,0.153,0.54C217.639,98.643,217.504,98.716,217.365,98.716z"/>
		<path style="fill:#CF7A64;" d="M177.758,152.876c-1.525,4.595-3.055,9.38-4.368,14.018c-0.638,2.324-1.245,4.652-1.645,6.837
			c-0.197,1.082-0.334,2.15-0.378,2.961c-0.023,0.385,0.005,0.72-0.02,0.716c-0.021-0.006-0.049-0.143-0.261-0.465l-0.088-0.12
			c-0.031-0.037,0.002,0.008,0.002,0.008l0.039,0.065c0.021,0.048,0.056,0.085,0.084,0.128c0.232,0.329,0.617,0.673,1.251,1.004
			c0.628,0.326,1.486,0.582,2.433,0.755c1.917,0.349,4.184,0.375,6.483,0.211c2.31-0.159,4.689-0.498,7.073-0.93
			c2.378-0.401,4.823-0.982,7.122-1.547l2.03,4.986c-4.786,2.458-9.643,4.363-15.059,5.526c-2.707,0.552-5.536,0.938-8.661,0.738
			c-1.564-0.122-3.21-0.378-4.934-1.003c-1.711-0.61-3.52-1.658-4.982-3.219c-0.181-0.195-0.363-0.388-0.528-0.598l-0.25-0.312
			c-0.048-0.064-0.066-0.079-0.139-0.183l-0.214-0.321c-0.542-0.861-0.798-1.597-0.977-2.216c-0.336-1.233-0.408-2.169-0.46-3.049
			c-0.077-1.723,0.048-3.182,0.21-4.606c0.329-2.828,0.853-5.446,1.461-8.03c1.219-5.171,2.729-10.059,4.55-15.024L177.758,152.876z
			"/>
		<path style="fill:#CE7A63;" d="M193.465,178.523l3.768-8.175l5.616,6.867c0,0-3.199,4.976-7.388,4.921L193.465,178.523z"/>
		<polygon style="fill:#CE7A63;" points="201.469,167.907 206.775,173.467 202.849,177.215 197.233,170.348 		"/>
		<path style="fill:#407BFF;" d="M173.636,136.282c-11.136,1.801-11.136,20.634-11.136,20.634l15.25,8.897
			c0,0,6.508-13.842,5.973-20.356C183.269,139.927,180.02,135.25,173.636,136.282z"/>
		<path style="fill:#407BFF;" d="M134.599,387.449c-0.128,0.024-0.259,0.026-0.395,0.007c-1.249-0.178-2.424-2.212-3.013-3.408
			c-0.035-0.071-0.024-0.156,0.027-0.216c0.052-0.06,0.134-0.084,0.21-0.061c0.393,0.121,3.845,1.218,4.178,2.439
			c0.051,0.187,0.056,0.469-0.206,0.756C135.154,387.235,134.886,387.396,134.599,387.449z M131.766,384.3
			c0.868,1.639,1.785,2.662,2.495,2.763c0.307,0.043,0.582-0.077,0.846-0.365c0.152-0.166,0.139-0.298,0.115-0.383
			C135.019,385.565,132.957,384.711,131.766,384.3z"/>
		<path style="fill:#407BFF;" d="M134.517,384.298c-1.115,0.207-2.549,0.104-3.218-0.151c-0.066-0.025-0.113-0.084-0.125-0.153
			c-0.011-0.07,0.015-0.14,0.07-0.185c0.094-0.078,2.329-1.907,3.756-1.679c0.372,0.058,0.662,0.246,0.862,0.558
			c0.31,0.486,0.134,0.833,0,0.996C135.611,383.991,135.108,384.188,134.517,384.298z M131.799,383.88
			c1.148,0.256,3.263,0.153,3.755-0.447c0.081-0.1,0.152-0.252-0.028-0.532c-0.137-0.215-0.33-0.339-0.589-0.38
			C133.965,382.365,132.442,383.401,131.799,383.88z"/>
		<path style="fill:#407BFF;" d="M197.626,406.068c-1.149,0-2.398-0.222-3.264-0.414c-0.083-0.019-0.145-0.088-0.154-0.172
			c-0.009-0.085,0.036-0.165,0.113-0.202c0.492-0.231,4.829-2.236,5.922-1.496c0.14,0.094,0.302,0.277,0.283,0.614
			c-0.027,0.466-0.225,0.843-0.591,1.119C199.393,405.927,198.542,406.068,197.626,406.068z M195.044,405.388
			c1.288,0.241,3.67,0.555,4.651-0.187c0.272-0.206,0.414-0.476,0.434-0.825c0.009-0.161-0.054-0.225-0.109-0.263
			C199.41,403.698,196.845,404.595,195.044,405.388z"/>
		<path style="fill:#407BFF;" d="M194.405,405.659c-0.046,0-0.092-0.016-0.128-0.047c-0.057-0.048-0.082-0.124-0.065-0.196
			c0.041-0.182,1.026-4.46,3.38-4.187c0.59,0.07,0.751,0.363,0.782,0.596c0.147,1.089-2.588,3.285-3.894,3.819
			C194.456,405.653,194.43,405.659,194.405,405.659z M197.378,401.612c-1.504,0-2.381,2.49-2.671,3.487
			c1.413-0.74,3.368-2.525,3.274-3.221c-0.007-0.051-0.028-0.207-0.437-0.256C197.488,401.616,197.433,401.612,197.378,401.612z"/>
		<path style="fill:#263238;" d="M206.283,103.464l1.808-0.929C208.091,102.535,207.402,104.225,206.283,103.464z"/>
	</g>
</g>
<g id="Camera">
	<g>
		<path d="M282.167,173.417h3.375c1.043,0,1.6-0.853,1.239-1.896l-2.093-6.042c-0.361-1.043-1.51-1.896-2.552-1.896h-3.375
			c-1.043,0-1.6,0.853-1.239,1.896l2.093,6.042C279.975,172.564,281.124,173.417,282.167,173.417z"/>
		<path style="fill:#263238;" d="M283.708,173.417h3.375c1.043,0,1.6-0.853,1.239-1.896l-2.093-6.042
			c-0.361-1.043-1.51-1.896-2.553-1.896h-3.375c-1.043,0-1.6,0.853-1.239,1.896l2.093,6.042
			C281.517,172.564,282.666,173.417,283.708,173.417z"/>
		<path d="M291.459,173.417h-3.375c-1.043,0-1.6-0.853-1.239-1.896l2.093-6.042c0.361-1.043,1.51-1.896,2.552-1.896h3.375
			c1.043,0,1.6,0.853,1.239,1.896l-2.093,6.042C293.65,172.564,292.501,173.417,291.459,173.417z"/>
		<path style="fill:#263238;" d="M293,173.417h-3.375c-1.043,0-1.6-0.853-1.239-1.896l2.093-6.042
			c0.361-1.043,1.51-1.896,2.552-1.896h3.375c1.043,0,1.6,0.853,1.239,1.896l-2.093,6.042
			C295.192,172.564,294.043,173.417,293,173.417z"/>
		<path d="M294.523,167.559h-4.243l-14.55-1.651c-2.062-0.234-3.619-1.978-3.619-4.053v-9.539c0-1.772,1.437-3.209,3.209-3.209
			h19.203c0.761,0,1.377,0.617,1.377,1.377v15.696C295.9,166.942,295.284,167.559,294.523,167.559z"/>
		<path style="fill:#263238;" d="M300.061,167.559h-8.404c-0.761,0-1.377-0.617-1.377-1.377v-15.696
			c0-0.761,0.617-1.377,1.377-1.377h8.404c0.761,0,1.377,0.617,1.377,1.377v15.696C301.438,166.942,300.822,167.559,300.061,167.559
			z"/>
		<polygon points="301.438,157.917 284.005,159.917 284.005,150.5 301.438,150.5 		"/>
		<path d="M303.899,156.222h-9.377l-32.157-3.648c-4.556-0.517-7.998-4.372-7.998-8.957v-21.081c0-3.916,3.175-7.091,7.091-7.091
			h42.441c1.681,0,3.044,1.363,3.044,3.044v34.69C306.943,154.859,305.58,156.222,303.899,156.222z"/>
		<g>
			<polygon points="240.797,115.444 231.797,115.444 225.602,93.5 240.797,93.5 			"/>
			<rect x="260.248" y="104.472" width="9.097" height="2.25"/>
			
				<rect x="237.797" y="93.5" transform="matrix(-1 -1.224647e-16 1.224647e-16 -1 502.5934 208.9444)" style="fill:#263238;" width="27" height="21.944"/>
			<polygon points="256.13,128.778 251.63,128.778 237.797,104.472 242.297,104.472 			"/>
			<polygon points="283.13,128.778 278.63,128.778 264.797,104.472 269.297,104.472 			"/>
			<rect x="233.199" y="104.472" width="9.097" height="2.25"/>
		</g>
		<path style="fill:#263238;" d="M316.138,156.222h-18.573c-1.681,0-3.044-1.363-3.044-3.044v-34.69
			c0-1.681,1.363-3.044,3.044-3.044h18.573c1.681,0,3.044,1.363,3.044,3.044v34.69C319.182,154.859,317.82,156.222,316.138,156.222z
			"/>
		<path d="M355.749,144h-47.755c-3.989,0-7.222-3.234-7.222-7.222v-1.889c0-3.989,3.233-7.222,7.222-7.222h47.755V144z"/>
		<g>
			<path style="fill:#263238;" d="M339.827,135.833c0,7.732-6.268,14-14,14c-7.732,0-10.917-6.268-10.917-14
				c0-7.732,3.185-14,10.917-14C333.559,121.833,339.827,128.101,339.827,135.833z"/>
			<path d="M332.256,153.057l-7.143-4.784c-1.585-1.061-2.536-2.842-2.536-4.749v-15.382c0-1.907,0.951-3.688,2.536-4.75
				l7.143-4.783c0.269-0.18,0.585-0.276,0.908-0.276h32.647c0.433,0,0.848,0.172,1.154,0.478l5.801,5.801
				c0.306,0.306,0.478,0.721,0.478,1.154v20.133c0,0.433-0.172,0.848-0.478,1.154l-5.802,5.802
				c-0.306,0.306-0.721,0.478-1.154,0.478h-32.646C332.841,153.333,332.525,153.237,332.256,153.057z"/>
			<path style="fill:#263238;" d="M337.273,152.855l-5.802-5.802c-0.306-0.306-0.478-0.721-0.478-1.154v-20.133
				c0-0.433,0.172-0.848,0.478-1.154l5.801-5.801c0.306-0.306,0.721-0.478,1.154-0.478h32.467c0.433,0,0.848,0.172,1.154,0.478
				l5.801,5.801c0.306,0.306,0.478,0.721,0.478,1.154v20.133c0,0.433-0.172,0.848-0.478,1.154l-5.802,5.802
				c-0.306,0.306-0.721,0.478-1.154,0.478h-32.466C337.995,153.333,337.58,153.161,337.273,152.855z"/>
			<path style="opacity:0.5;fill:#407BFF;" d="M370.327,150.333h-31.333c-1.953-1.953-3.047-3.047-5-5v-19
				c1.953-1.953,3.047-3.047,5-5h31.333c1.953,1.953,3.047,3.047,5,5v19C373.375,147.286,372.28,148.381,370.327,150.333z"/>
			<circle style="fill:#263238;" cx="354.66" cy="135.833" r="12.25"/>
			<path style="opacity:0.7;fill:#407BFF;" d="M350.805,126.808c-0.999,0-1.954,0.165-2.848,0.46
				c-2.623,1.945-4.316,5.054-4.316,8.562c0,3.508,1.693,6.617,4.316,8.562c0.894,0.295,1.849,0.46,2.848,0.46
				c4.976,0,9.023-4.038,9.023-9.022C359.827,130.854,355.78,126.808,350.805,126.808z"/>
			<path style="fill:#407BFF;" d="M357.48,132.931c0,1.994-1.617,3.611-3.611,3.611c-1.994,0-3.611-1.617-3.611-3.611
				c0-1.994,1.617-3.611,3.611-3.611C355.863,129.319,357.48,130.936,357.48,132.931z"/>
		</g>
		<path style="fill:#407BFF;" d="M286.283,142.821l-33.555-10.057c-1.293-0.387-2.178-1.577-2.178-2.927v-6.559
			c0-1.688,1.368-3.056,3.056-3.056h33.555c1.688,0,3.056,1.368,3.056,3.056v16.617
			C290.216,141.941,288.243,143.409,286.283,142.821z"/>
		<path style="fill:#263238;" d="M284.5,142.821l-33.555-10.057c-1.293-0.387-2.178-1.577-2.178-2.927v-6.559
			c0-1.688,1.368-3.056,3.056-3.056h33.555c1.688,0,3.056,1.368,3.056,3.056v16.617C288.433,141.941,286.46,143.409,284.5,142.821z"
			/>
		<path style="fill:#407BFF;" d="M250.549,137.661v2.433c0,0.801,0.526,1.508,1.293,1.738l36.038,10.802
			c1.164,0.349,2.335-0.523,2.335-1.738v-2.433c0-0.801-0.526-1.508-1.293-1.738l-36.038-10.802
			C251.72,135.574,250.549,136.446,250.549,137.661z"/>
		<g>
			<path style="fill:#263238;" d="M296.854,169.389h-20.239v19.777h20.239c3.679,0,6.561-4.344,6.561-9.889
				C303.415,173.733,300.533,169.389,296.854,169.389z"/>
			<path style="fill:#407BFF;" d="M276.616,189.167c-3.679,0-6.561-4.344-6.561-9.889s2.882-9.889,6.561-9.889
				s6.561,4.344,6.561,9.889S280.295,189.167,276.616,189.167z"/>
			<ellipse style="fill:#263238;" cx="276.615" cy="179.278" rx="4.561" ry="7.889"/>
			<path style="fill:#263238;" d="M287.186,191.756c-5.647,0-10.432,2.682-12.082,6.392c-0.596,1.34,0.419,2.848,1.885,2.848h20.395
				c1.466,0,2.48-1.509,1.885-2.848C297.618,194.439,292.832,191.756,287.186,191.756z"/>
		</g>
		<path d="M295.487,195.5h-16.603c-1.248,0-2.268-1.021-2.268-2.268v-1.796c0-1.248,1.021-2.268,2.268-2.268h16.603
			c1.248,0,2.268,1.021,2.268,2.268v1.796C297.756,194.479,296.735,195.5,295.487,195.5z"/>
		<g>
			<polygon style="fill:#263238;" points="251.839,416.238 248.641,416.238 276.988,200.996 280.186,200.996 			"/>
			<polygon style="fill:#263238;" points="272.646,416.238 269.448,416.238 283.621,200.996 286.819,200.996 			"/>
		</g>
		<g>
			<polygon style="fill:#263238;" points="322.532,416.238 325.73,416.238 297.383,200.996 294.185,200.996 			"/>
			<polygon style="fill:#263238;" points="302.02,416.238 304.923,416.238 290.75,200.996 287.846,200.996 			"/>
		</g>
		<polygon points="245.726,197.35 243.957,196.416 265.689,155.223 273.292,155.223 273.292,157.223 266.895,157.223 		"/>
		
			<rect x="239.372" y="188.95" transform="matrix(0.4667 -0.8844 0.8844 0.4667 -36.6435 321.129)" style="fill:#407BFF;" width="17.197" height="4.001"/>
	</g>
</g>
</svg>
