<?xml version="1.0" encoding="utf-8"?>
<!-- Generator: Adobe Illustrator 27.5.0, SVG Export Plug-In . SVG Version: 6.00 Build 0)  -->
<svg version="1.1" id="Слой_1" xmlns="http://www.w3.org/2000/svg" xmlns:xlink="http://www.w3.org/1999/xlink" x="0px" y="0px"
	 viewBox="0 0 3020 2000" style="enable-background:new 0 0 3020 2000;" xml:space="preserve">
<g>
	<rect y="-0.001" style="fill:#FFFFFF;" width="3020" height="2000"/>
	<path style="fill:#E3EAFF;" d="M332.874,1881.102c-335.372-310.253,141.213-396.961-21.599-659.093
		C202.266,1046.5,176.217,687.82,355.618,603.987c221.259-103.39,358.606-31.672,544.666-262.805
		c134.254-166.775,548.857-309.309,813.171-281.868c367.679,38.17,422.355,327.577,701.156,338.243
		c170.957,6.539,314.12,50.286,452.848,226.764c199.24,253.458,106.367,645.32,12.104,969.021
		c-34.699,119.156-105.139,290.58-105.139,290.58L332.874,1881.102z"/>
	<path style="fill:#95A6DB;" d="M2112.959,871.735H1000.587c-37.096,0-67.167-30.072-67.167-67.168V203.479
		c0-37.097,30.071-67.168,67.167-67.168h1112.372c37.096,0,67.168,30.071,67.168,67.168v601.089
		C2180.127,841.663,2150.055,871.735,2112.959,871.735z"/>
	<path style="fill:#FFFFFF;" d="M2072.68,835.983H1040.867c-33.92,0-61.418-27.497-61.418-61.417V233.479
		c0-33.92,27.498-61.416,61.418-61.416H2072.68c33.92,0,61.417,27.496,61.417,61.416v541.088
		C2134.097,808.486,2106.6,835.983,2072.68,835.983z"/>
	<path style="fill:#95A6DB;" d="M2790.073,1911.438H323.473c-9.34,0-16.911-7.57-16.911-16.91l0,0
		c0-9.34,7.571-16.912,16.911-16.912h2466.601c9.339,0,16.91,7.572,16.91,16.912l0,0
		C2806.983,1903.867,2799.412,1911.438,2790.073,1911.438z"/>
	<g>
		<g>
			<path style="fill:#97AAE8;" d="M411.957,1286.999c-28.148-60.665,42.625-137.133,8.866-194.863
				c-20.967-35.856-76.066-48.924-82.206-90.003c-1.828-12.239,1.446-24.577,3.175-36.831
				c6.744-47.818-11.757-98.478-47.729-130.695c-35.882-32.135-88.091-44.971-134.787-33.172l-0.008-0.024
				c-0.058,0.021-0.114,0.046-0.172,0.066c-0.06,0.016-0.12,0.028-0.18,0.043l0.008,0.024
				c-45.098,16.945-82.949,57.983-94.095,104.843c-11.173,46.98,2.523,99.145,35.336,134.576
				c8.408,9.079,18.136,17.347,23.614,28.443c18.387,37.244-19.42,79.404-16.192,120.814
				c5.197,66.674,106.944,89.122,118.423,155.005c3.027,17.379-1.034,35.128-1.386,52.765
				c-1.531,76.996,82.108,143.085,156.663,123.788l3.819-1.196c72.246-26.671,103.256-128.659,58.083-191.031
				C432.842,1315.265,419.382,1303,411.957,1286.999z"/>
			<g>
				<path style="fill:#859CE8;" d="M163.73,805.318l292.661,900.199c2.347,7.221-1.603,14.976-8.821,17.322
					c-7.22,2.346-14.975-1.603-17.321-8.822c-0.023-0.072-0.066-0.211-0.089-0.284L157.129,807.386
					c-0.551-1.83,0.484-3.76,2.314-4.31C161.246,802.532,163.149,803.536,163.73,805.318z"/>
				<path style="fill:#859CE8;" d="M188.659,1223.805c21.742-2.514,41.646-0.805,62.054,8.957
					c19.587,9.3,35.699,23.756,49.829,40.053c9.279,10.809,17.556,22.385,25.179,34.313c2.777,4.346,1.506,10.121-2.84,12.899
					c-4.635,2.962-10.84,1.305-13.358-3.646l-0.018-0.036c-6.062-11.995-12.745-23.663-20.382-34.628
					c-11.479-16.297-24.944-31.203-42.282-41.701c-18.358-11.188-37.185-14.548-58.051-14.251c-0.543,0.009-0.991-0.422-1.001-0.965
					C187.78,1224.291,188.166,1223.866,188.659,1223.805z"/>
				<path style="fill:#859CE8;" d="M99.771,939.94c28.916-2.998,53.949,1.767,79.948,20.646
					c22.412,16.212,40.717,40.075,55.407,63.644c2.152,3.455,1.098,7.999-2.357,10.152c-3.454,2.152-7.998,1.099-10.151-2.356
					c-0.098-0.156-0.188-0.317-0.273-0.477l-0.021-0.04c-12.069-23.171-27.68-47.338-47.757-64.359
					c-23.184-19.735-46.545-25.98-74.665-25.252c-0.542,0.018-0.995-0.409-1.012-0.951C98.875,940.43,99.267,939.995,99.771,939.94z
					"/>
				<path style="fill:#859CE8;" d="M349.781,1085.623c-11.486,7.503-21.549,16.101-29.484,27.454
					c-7.785,10.909-12.899,23.454-16.046,36.401c-3.183,12.972-4.36,26.401-4.527,39.811c-0.093,13.433,0.912,26.891,2.581,40.276
					l0.003,0.022c0.47,3.771-2.204,7.205-5.973,7.677c-3.769,0.47-7.205-2.205-7.675-5.974c-0.02-0.158-0.035-0.333-0.044-0.49
					c-0.735-13.961-0.781-28,0.319-42.004c1.178-13.987,3.416-27.987,7.759-41.454c4.295-13.433,10.695-26.368,19.703-37.246
					c9.012-11.104,19.919-19.238,32.374-26.156c0.475-0.263,1.072-0.092,1.336,0.382
					C350.358,1084.775,350.207,1085.345,349.781,1085.623z"/>
			</g>
		</g>
		<g>
			<path style="fill:#97AAE8;" d="M556.419,1286.663c23.317-47.89-31.902-109.835-4.161-155.304
				c17.229-28.24,61.3-37.826,66.8-70.447c1.639-9.72-0.786-19.594-1.979-29.377c-4.659-38.178,10.827-78.243,39.952-103.363
				c29.05-25.055,70.815-34.499,107.825-24.41l0.006-0.02c0.046,0.019,0.091,0.039,0.137,0.057c0.047,0.013,0.095,0.024,0.142,0.036
				l-0.006,0.019c35.659,14.164,65.19,47.407,73.368,84.887c8.199,37.577-3.483,78.913-30.14,106.639
				c-6.831,7.105-14.699,13.543-19.227,22.298c-15.195,29.385,14.283,63.52,11.097,96.447
				c-5.13,53.017-86.486,69.377-96.607,121.671c-2.669,13.792,0.301,27.987,0.318,42.037
				c0.074,61.335-67.513,112.719-126.595,96.244l-3.023-1.011c-57.133-22.312-80.309-103.989-43.41-152.984
				C539.368,1308.859,550.269,1299.293,556.419,1286.663z"/>
			<g>
				<path style="fill:#859CE8;" d="M761.25,906.788l-246.44,712.485c-1.977,5.713,1.054,11.947,6.767,13.925
					c5.714,1.977,11.948-1.056,13.925-6.769c0.02-0.057,0.057-0.168,0.075-0.225l230.9-717.672c0.466-1.448-0.331-3.001-1.779-3.466
					C763.269,904.607,761.739,905.378,761.25,906.788z"/>
				<path style="fill:#859CE8;" d="M735.174,1239.663c-17.289-2.327-33.157-1.257-49.548,6.208
					c-15.737,7.115-28.78,18.39-40.274,31.153c-7.55,8.471-14.314,17.563-20.561,26.948c-2.276,3.421-1.351,8.037,2.069,10.314
					c3.419,2.275,8.036,1.35,10.313-2.07c0.139-0.207,0.265-0.418,0.379-0.635l0.015-0.026c5.005-9.463,10.501-18.653,16.745-27.272
					c9.423-12.86,20.384-24.512,34.29-32.577c14.777-8.631,29.81-11.032,46.438-10.485c0.433,0.017,0.796-0.322,0.812-0.753
					C735.866,1240.063,735.565,1239.72,735.174,1239.663z"/>
				<path style="fill:#859CE8;" d="M810.179,1014.94c-17.401-2.134-33.153-0.83-49.281,6.73
					c-25.148,11.713-44.65,35.119-59.757,58.378c-1.766,2.72-0.993,6.353,1.726,8.118c2.881,1.872,6.72,0.871,8.343-2.101
					l0.018-0.032c12.518-22.974,29.216-46.672,52.112-59.575c14.824-8.407,29.866-10.715,46.706-9.961
					c0.432,0.019,0.799-0.313,0.819-0.743C810.886,1015.345,810.579,1014.991,810.179,1014.94z"/>
				<path style="fill:#859CE8;" d="M608.926,1127.23c9.016,6.132,16.907,13.126,23.07,22.3
					c12.104,17.653,15.381,39.676,15.249,60.996c-0.126,10.697-1.126,21.4-2.654,32.032l-0.003,0.02
					c-0.431,2.994,1.648,5.771,4.643,6.2c2.994,0.429,5.769-1.648,6.2-4.642c0.018-0.127,0.032-0.266,0.042-0.39
					c0.793-11.105,1.039-22.285,0.37-33.454c-1.474-22.549-6.675-45.481-20.696-63.078c-7.021-8.985-15.594-15.624-25.392-21.31
					c-0.374-0.217-0.853-0.089-1.069,0.284C608.479,1126.545,608.591,1127.002,608.926,1127.23z"/>
			</g>
		</g>
		<g>
			<path style="fill:#AEBCE8;" d="M585.617,1184.512c-8.733-66.305,81.656-118.131,66.691-183.31
				c-9.294-40.483-57.971-69.419-51.554-110.456c1.912-12.227,8.725-23.022,14.035-34.201
				c20.725-43.616,18.208-97.491-6.494-138.985c-24.639-41.389-70.627-69.239-118.715-71.934v-0.027
				c-0.062,0.005-0.123,0.011-0.185,0.015c-0.061-0.004-0.122-0.01-0.184-0.015v0.027c-48.101,2.693-96.486,30.545-121.125,71.934
				c-24.702,41.494-27.22,95.369-6.494,138.985c5.311,11.179,12.124,21.974,14.036,34.201
				c6.416,41.037-42.261,69.973-51.556,110.456c-14.964,65.179,75.426,117.005,66.692,183.31
				c-2.305,17.488-11.484,33.214-17.09,49.939c-24.47,73.021,35.6,161.084,112.515,164.947h4.002
				c76.914-3.863,136.983-91.927,112.514-164.947C597.102,1217.726,587.921,1202,585.617,1184.512z"/>
			<g>
				<path style="fill:#97AAE8;" d="M492.672,650.664l10.284,946.521c0.083,7.591-6.003,13.811-13.594,13.894
					s-13.811-6.004-13.893-13.594c-0.001-0.077,0-0.224,0-0.3l10.285-946.521c0.021-1.911,1.586-3.442,3.496-3.422
					C491.134,647.262,492.649,648.789,492.672,650.664z"/>
				<path style="fill:#97AAE8;" d="M391.406,1057.478c21.512,4.102,39.988,11.683,56.542,27.092
					c15.911,14.724,26.965,33.332,35.584,53.111c5.624,13.089,10.064,26.608,13.774,40.27c1.352,4.979-1.587,10.109-6.564,11.461
					c-5.338,1.448-10.743-2.028-11.659-7.471l-0.006-0.039c-2.2-13.26-5.092-26.39-9.104-39.137
					c-6.1-19.035-14.51-37.269-27.888-52.432c-14.099-16.071-30.993-24.956-51.141-30.945c-0.521-0.153-0.818-0.699-0.666-1.222
					C390.422,1057.68,390.917,1057.389,391.406,1057.478z"/>
				<path style="fill:#97AAE8;" d="M391.406,760.021c21.27,4.312,39.66,12.036,56.017,27.607
					c15.638,14.801,26.394,33.383,34.729,53.113c5.44,13.062,9.699,26.545,13.234,40.169c1.022,3.939-1.343,7.96-5.282,8.982
					c-3.939,1.023-7.961-1.342-8.983-5.281c-0.046-0.18-0.086-0.359-0.118-0.539l-0.008-0.044
					c-2.376-13.298-5.446-26.463-9.644-39.237c-6.372-19.06-15.065-37.318-28.741-52.431c-14.438-16.044-31.56-24.71-51.666-30.431
					c-0.522-0.146-0.827-0.688-0.681-1.211C390.404,760.222,390.909,759.923,391.406,760.021z"/>
				<path style="fill:#97AAE8;" d="M586.459,973.759c-13.2,3.725-25.373,8.923-36.341,17.386
					c-10.69,8.086-19.319,18.529-26.191,29.946c-13.523,22.352-21.129,50.142-25.79,75.845l-0.004,0.022
					c-0.678,3.738-4.257,6.219-7.993,5.541c-3.737-0.678-6.218-4.256-5.54-7.994c0.028-0.155,0.066-0.327,0.105-0.479
					c6.808-26.566,16.829-54.858,32.647-77.232c8.113-11.535,18.087-21.967,29.934-29.657c11.953-7.926,24.811-12.415,38.711-15.285
					c0.531-0.11,1.051,0.232,1.16,0.763C587.263,973.12,586.949,973.62,586.459,973.759z"/>
			</g>
		</g>
		<path id="Vector_23_2_" style="fill:#5A5D8C;" d="M578.731,1556.828h-225.02c-17.628,0-31.293,15.867-29.189,33.892
			l30.326,259.918c1.775,15.215,14.309,26.666,29.188,26.666h164.368c14.881,0,27.414-11.451,29.19-26.666l30.326-259.918
			C610.023,1572.695,596.358,1556.828,578.731,1556.828z"/>
	</g>
	<g>
		<g id="с_12_">
			<path id="с_19_" style="fill:#C4204A;" d="M2276.082,1886.049L2276.082,1886.049c-10.549,0-19.101-8.551-19.101-19.099v-338.401
				h38.2v338.401C2295.182,1877.498,2286.631,1886.049,2276.082,1886.049z"/>
			<path id="с_18_" style="fill:#C4204A;" d="M2410.103,1886.049L2410.103,1886.049c-10.548,0-19.099-8.551-19.099-19.099v-338.401
				h38.199v338.401C2429.203,1877.498,2420.651,1886.049,2410.103,1886.049z"/>
			<path id="с_17_" style="fill:#C4204A;" d="M2585.96,1886.049L2585.96,1886.049c-10.548,0-19.1-8.551-19.1-19.099v-338.401
				h38.198v338.401C2605.059,1877.498,2596.508,1886.049,2585.96,1886.049z"/>
			<path id="с_16_" style="fill:#C4204A;" d="M2719.979,1886.049L2719.979,1886.049c-10.548,0-19.099-8.551-19.099-19.099v-338.401
				h38.199v338.401C2739.08,1877.498,2730.529,1886.049,2719.979,1886.049z"/>
			<path id="с_15_" style="fill:#E62552;" d="M2508.655,1026.33v402.699c0,4.582-3.716,8.297-8.299,8.297h-249.68
				c-25.19,0-45.613,20.421-45.613,45.611l0,0c0,25.189,20.423,45.611,45.613,45.611h257.979h45.612
				c25.189,0,45.611-20.422,45.611-45.611v-45.611V1026.33c0-25.19-20.422-45.612-45.611-45.612h-0.001
				C2529.076,980.718,2508.655,1001.14,2508.655,1026.33z"/>
			<rect id="с_14_" x="2554.267" y="980.718" style="fill:#E62552;" width="197.407" height="464.006"/>
			<path id="с_13_" style="fill:#C4204A;" d="M2706.063,1026.33v402.699c0,4.582-3.715,8.297-8.298,8.297h-249.681
				c-25.191,0-45.611,20.421-45.611,45.611l0,0c0,25.189,20.42,45.611,45.611,45.611h257.979h45.611
				c25.191,0,45.611-20.422,45.611-45.611v-45.611V1026.33c0-25.19-20.42-45.612-45.611-45.612l0,0
				C2726.481,980.718,2706.063,1001.14,2706.063,1026.33z"/>
		</g>
		<g>
			
				<ellipse transform="matrix(0.7071 -0.7071 0.7071 0.7071 311.8813 2008.1057)" style="fill:#211E42;" cx="2579.939" cy="627.579" rx="73.031" ry="73.032"/>
			<path style="fill:#2C2858;" d="M2451.205,808.819c-18.37-15.24-49.068-73.349-21.659-134.197
				c27.409-60.849,69.161-75.285,108.438-56.736c37.263-7.549,66.829-7.677,91.612,15.893
				c24.783,23.573,78.994,152.007-29.717,192.42C2516.903,835.239,2451.205,808.819,2451.205,808.819z"/>
			<g>
				<path style="fill:#F37A50;" d="M2307.742,1000.383c3.227,19.802-46.125,67.162-62.065,61.197
					c-66.891-56.391-109.142-189.643-109.142-189.643l29.396-26.321C2165.931,845.616,2230.899,920.279,2307.742,1000.383z"/>
				<path style="fill:#F37A50;" d="M2505.215,999.532c-53.168,27.898-239.881,71.269-259.538,62.048l30.405-75.629
					c0,0,179.328-71.924,211.123-82.664C2542.219,884.563,2592.102,954.149,2505.215,999.532z"/>
			</g>
			<g>
				<g>
					<g>
						<path style="fill:#3F964F;" d="M2426.054,1179.77c1.233-22.451-35.05-114.654-15.95-161.063
							c13.91-37.333,38.199-102.642,66.658-113.097c13.427-4.933,32.396-9.082,49.129-13.708c0,0-15.661,50.396,4.006,51.972
							c37.859,3.038,69.982-62.042,69.982-62.042c20.412-1.951,86.867,15.528,105.656,26.135
							c-0.223,60.22-48.795,158.537-64.795,223.645c-6.294,70.318,18.238,154.466,18.326,162.466c0,0-150.62,42.341-239.906-6.811
							C2417.294,1280.42,2424.35,1210.772,2426.054,1179.77z"/>
					</g>
				</g>
			</g>
			<path style="fill:#2C2858;" d="M2645.174,1221.827c0,0,24.488,83.892,32.596,136.7c8.108,52.808-37.653,86.693-37.653,86.693
				h-380.56c0,0-40.743-66.073-29.006-111.696c11.734-45.625,19.662-57.213,19.662-57.213L2645.174,1221.827z"/>
			<path style="fill:#DE623C;" d="M2254.459,1278.308c48.588-6.854,159.521,47.916,219.647,166.912h-138.134L2254.459,1278.308z"/>
			<g>
				<path style="fill:#DE623C;" d="M2307.742,1322.105c-6.279-6.872-11.98-15.345-16.998-24.188
					c-14.181-24.981-48.36-29.202-67.66-7.924c-70.137,77.327-219.655,253.61-252.988,275.545
					c-9.416,6.198-64.371,37.838-116.61,31.584c0,0-25.786,9.818-8.606,30.294c8.84,10.537,141.601,21.428,141.601,21.428
					l10.347-38.983c77.28-57.196,173.486-53.084,255.059-157.65C2296.805,1394.629,2307.742,1322.105,2307.742,1322.105z"/>
				<path style="fill:#201D40;" d="M1959.59,1670.99l-53.424,34.676l-7.343-8.754l43.333-40.41
					c-24.615-19.422-81.63-3.216-81.63-3.216c-18.674-12.061-55.077-51.185-58.831-72.147
					c11.958-14.901,51.779,15.749,51.779,15.749c-1.461,6.64,11.121,29.638,21.129,33.566c43.498,9.385,86.852-2.973,122.223-20.935
					C1996.826,1609.521,2026.387,1654.313,1959.59,1670.99z"/>
			</g>
			<g>
				<path style="fill:#F37A50;" d="M2308.521,1332.608c9.729,2.617,16.986,10.767,18.393,20.744
					c3.807,26.987,23.456,81.647-3.129,138.884c-65.265,140.518-103.798,233.103-110.644,269.369
					c17.047,31.926-50.93,119.142-51.942,124.852l-49.845-8.219c0,0,28.993-48.855,39.099-65.207
					c24.07-38.94,28.009-86.722,31.922-123.763c16.701-158.126-12.018-257.965,102.397-350.726
					C2291.539,1333.06,2300.106,1330.345,2308.521,1332.608z"/>
				<path style="fill:#201D40;" d="M2237.516,1835.062l-4.822,63.508l-11.412,0.531l-5.859-58.964
					c-30.368,7.799-52.055,62.961-52.055,62.961c-20.914,7.535-74.1,12.759-93.044,3.033c-4.598-18.547,43.923-31.624,43.923-31.624
					c4.393,5.188,30.309,9.129,39.502,3.553c33.84-28.896,52.228-77.437,59.394-116.454
					C2213.142,1761.605,2264.758,1771.832,2237.516,1835.062z"/>
			</g>
			<g>
				<g>
					<g>
						<path style="fill:#F37A50;" d="M2532.719,848.2l67.16-25.654v59.286c0,0-29.291,70.41-68.057,65.672
							c-23.161-2.83-10.436-41.731-7.145-55.268C2527.322,881.361,2532.719,848.2,2532.719,848.2z"/>
					</g>
				</g>
			</g>
			<g>
				<path style="fill:#F37A50;" d="M2621.675,748.111c1.03,65.005-39.523,118.357-90.578,119.166
					c-51.054,0.808-93.277-51.232-94.308-116.236c-1.029-65.005,39.523-118.357,90.578-119.167
					C2578.422,631.066,2620.645,683.107,2621.675,748.111z"/>
				<path d="M2463.455,761.353c-1.029,4.795-5.75,7.849-10.545,6.821c-4.795-1.029-7.849-5.75-6.82-10.545
					c1.028-4.796,5.749-7.85,10.545-6.82C2461.43,751.835,2464.481,756.558,2463.455,761.353z"/>
				<path d="M2535.289,760.707c-1.113,5.189-6.224,8.496-11.414,7.383c-5.191-1.113-8.496-6.224-7.383-11.414
					c1.112-5.192,6.223-8.497,11.414-7.384S2536.402,755.516,2535.289,760.707z"/>
				<g>
					<path style="fill:#2C2858;" d="M2543.608,750.357c-0.716-0.154-1.387-0.543-1.886-1.153c-7.246-8.873-20.357-7.604-20.491-7.59
						c-1.829,0.192-3.479-1.132-3.677-2.964c-0.198-1.832,1.119-3.479,2.95-3.682c0.683-0.076,16.82-1.72,26.395,10.006
						c1.169,1.43,0.955,3.535-0.474,4.703C2545.606,750.346,2544.566,750.563,2543.608,750.357z"/>
				</g>
				<g>
					<path style="fill:#2C2858;" d="M2441.499,753.692c-0.352-0.076-0.694-0.208-1.02-0.402c-1.583-0.95-2.096-3.004-1.146-4.587
						c7.377-12.291,20.588-11.363,21.146-11.317c1.836,0.149,3.212,1.763,3.062,3.602c-0.149,1.835-1.754,3.202-3.587,3.062
						c-0.433-0.029-9.7-0.551-14.889,8.094C2444.311,753.402,2442.856,753.984,2441.499,753.692z"/>
				</g>
				<path style="fill:#DE623C;" d="M2473.78,778.641c-3.475,6.065-6.333,12.13-10.111,16.125c-1.273,1.346-1.242,3.491,0.041,4.829
					c5.294,5.521,17.284,8.112,24.51,9.212c1.054,0.16,1.517-1.285,0.563-1.768c-8.055-4.083-11.97-7.606-13.754-9.635
					c-0.887-1.008-1.22-2.375-0.93-3.687c0.665-3.011,1.958-9.132,2.622-14.095C2476.951,777.908,2474.64,777.142,2473.78,778.641z"
					/>
				<g>
					<path style="fill:#DE623C;" d="M2514.279,835.998c-16.145,4.137-30.165-0.745-30.393-0.826
						c-2.221-0.803-3.37-3.254-2.568-5.474c0.802-2.218,3.247-3.368,5.466-2.572c1.303,0.463,31.134,10.627,50.456-17.819
						c1.326-1.953,3.986-2.461,5.939-1.134c1.953,1.327,2.461,3.985,1.134,5.938
						C2535.393,827.244,2524.417,833.399,2514.279,835.998z"/>
				</g>
			</g>
			<path style="fill:#2C2858;" d="M2621.475,742.391c-59.387,7.024-154.713-30.885-168.996-59.216
				c1.865-38.908,56.393-72.196,94.084-64.052C2584.256,627.267,2634.166,690.778,2621.475,742.391z"/>
			<path style="fill:#3F964F;" d="M2284.383,1261.614L2284.383,1261.614c6.722-5.534,7.686-15.469,2.152-22.19l-196.582-238.802
				c-5.533-6.724-15.468-7.686-22.189-2.152l0,0c-6.723,5.533-7.686,15.468-2.152,22.19l196.582,238.803
				C2267.727,1266.185,2277.662,1267.146,2284.383,1261.614z"/>
			<path style="fill:#F37A50;" d="M2545.121,1156.694c21.082,8.358,30.227,76.405,23.98,81.292
				c-93.516,32.177-277.073-4.659-277.073-4.659l1.097-43.862C2293.126,1189.464,2422.826,1184.766,2545.121,1156.694z"/>
			<path style="fill:#F37A50;" d="M2727.265,1001.988c-23.401,61.914-135.21,229.211-158.163,235.998l-46.385-71.557
				c0,0,100.906-198.462,119.251-230.588C2673.605,880.137,2765.66,900.979,2727.265,1001.988z"/>
			<g>
				<path style="fill:#F37A50;" d="M2135.171,787.348c-3.557-5.285-29.764-19.61-37.288-19.566
					c-8.746,0.005-35.176,9.334-40.778,11.291c-5.601,1.957-2.942,7.393,4.961,9.618c10.399,2.205,21.218,1.293,31.1-2.627
					c11.255,6.282,19.248,11.359,20.187,12.319c6.559,4.754,8.022,13.924,3.27,20.482c-3.103,4.28-8.268,6.56-13.521,5.968
					l-1.213-0.283c2.677,12.387,3.609,25.088,2.763,37.732c10.72,5.982,18.47,14.259,33.241,9.02l28.737-24.585
					C2164.826,836.813,2140.967,795.854,2135.171,787.348z"/>
				<g>
					<path style="fill:#2C2858;" d="M2023.178,786.775l-3.911-1.613c-1.144-0.472-1.753-1.725-1.419-2.915l0,0
						c0.336-1.195,1.515-1.947,2.74-1.749l4.146,0.672c1.411,0.229,2.324,1.615,1.977,3.002l-0.236,0.941
						C2026.113,786.558,2024.555,787.344,2023.178,786.775z"/>
					<path style="fill:#2C2858;" d="M2229.682,844.132l-16.004-3.539c-0.686-0.151-1.117-0.829-0.966-1.514l1.507-6.813
						c0.15-0.685,0.828-1.118,1.513-0.965l16.005,3.538c0.686,0.151,1.117,0.828,0.966,1.514l-1.507,6.813
						C2231.045,843.851,2230.367,844.283,2229.682,844.132z"/>
					<path style="fill:#2C2858;" d="M2223.707,831.817l-1.592,6.228l-1.615,6.095c-0.318,1.086-1.454,1.71-2.541,1.396
						l-145.26-39.485c-4.362-1.213-51.314-16.653-50.305-19.318l0.92-3.204l0.729-2.687c0.55-2.103,48.713,7.729,53.132,8.861
						l144.855,39.553c1.088,0.119,1.873,1.099,1.754,2.189C2223.771,831.569,2223.745,831.695,2223.707,831.817z"/>
				</g>
				<path style="fill:#F37A50;" d="M2086.215,802.882c-4.121-3.598-11.037-7.452-16.51-7.452
					c-17.987,0.823-2.063,14.353,1.662,21.554c3.819,7.382,7.451,40.192,54.414,55.711c1.618,2.662-5.581-47.428-16.779-48.315
					C2097.988,823.509,2090.174,806.496,2086.215,802.882z"/>
			</g>
			<g>
				<path style="fill:#F37A50;" d="M2202.663,1189.889c2.075-4.918,5.71-6.979,9.399-7.767c13.485-2.882,28.189,5.644,26.092,2.615
					c-1.467-2.122-4.034-6.664-11.289-14.608c-10.02-10.969-4.277-18.293,0.537-15.231c12.729,7.801,25.501,8.567,36.572,19.224
					c10.355,9.965,16.695,13.207,29.15,15.344l-1.097,43.862c-13.852,0.69-10.272,6.467-26.321,15.239
					c-13.269,7.252-29.332,5.229-40.312,4.426C2200.473,1251.172,2187.729,1225.297,2202.663,1189.889z"/>
			</g>
			<path style="fill:#F37A50;" d="M2603.068,748.004c-7.212,13.48-4.115,29.192,6.915,35.095c11.033,5.9,25.822-0.241,33.034-13.722
				c7.211-13.479,4.115-29.191-6.916-35.093C2625.07,728.382,2610.281,734.524,2603.068,748.004z"/>
			<g>
				<path style="fill:#DE623C;" d="M2617.225,776.868c-0.493-0.106-0.967-0.326-1.387-0.661c-6.018-4.82-8.16-11.421-5.728-17.657
					c2.489-6.386,9.047-10.695,15.591-10.247c1.842,0.127,3.232,1.721,3.106,3.563s-1.721,3.233-3.563,3.107
					c-3.584-0.246-7.496,2.393-8.905,6.006c-1.355,3.472-0.048,7.027,3.679,10.012c1.441,1.154,1.674,3.258,0.519,4.697
					C2619.719,776.71,2618.422,777.125,2617.225,776.868z"/>
			</g>
		</g>
	</g>
	<g>
		<path style="fill:#FFFFFF;" d="M985.39,913.458c7.425-5.609,16.335-8.415,26.729-8.415c22.44,0,34.32,12.211,34.32,29.371
			c0,9.9-4.785,19.965-14.521,30.029c-12.374,13.035-21.284,19.471-26.895,19.471c-5.445,0-9.405-4.29-9.405-9.404
			c0-4.62,4.29-9.24,11.716-16.005c0.494-0.495,0.989-0.99,1.319-1.155c8.415-7.756,11.056-12.046,11.056-17.325
			c0-6.6-4.455-10.23-10.891-10.23c-2.97,0-6.434,0.66-10.559,1.98c-4.125,1.319-7.096,1.979-8.91,1.979c-4.62,0-9.9-3.96-9.9-10.56
			C979.449,919.729,981.43,916.43,985.39,913.458z M1007.994,1023.514c-10.064,0-16.83-7.589-16.83-16.829
			c0-7.92,6.766-15.51,16.83-15.51c8.745,0,15.511,7.59,15.511,15.51C1023.505,1015.76,1017.069,1023.514,1007.994,1023.514z"/>
	</g>
	<g>
		<path style="fill:#FFFFFF;" d="M2276.611,446.775c7.426-5.609,16.336-8.415,26.73-8.415c22.44,0,34.32,12.21,34.32,29.369
			c0,9.9-4.785,19.967-14.52,30.031c-12.376,13.034-21.286,19.47-26.896,19.47c-5.444,0-9.404-4.29-9.404-9.405
			c0-4.62,4.29-9.239,11.715-16.005c0.495-0.495,0.99-0.99,1.32-1.154c8.414-7.756,11.055-12.045,11.055-17.325
			c0-6.6-4.455-10.23-10.891-10.23c-2.969,0-6.435,0.659-10.56,1.98c-4.125,1.318-7.095,1.979-8.909,1.979
			c-4.621,0-9.9-3.96-9.9-10.56C2270.672,453.045,2272.652,449.744,2276.611,446.775z M2299.217,556.83
			c-10.064,0-16.83-7.59-16.83-16.831c0-7.919,6.766-15.509,16.83-15.509c8.745,0,15.51,7.59,15.51,15.509
			C2314.727,549.075,2308.291,556.83,2299.217,556.83z"/>
	</g>
	<g>
		<path style="fill:#FFFFFF;" d="M1798.402,1115.715c-30.029,0-54.461-24.432-54.461-54.46c0-30.029,24.432-54.462,54.461-54.462
			s54.461,24.433,54.461,54.462C1852.863,1091.283,1828.432,1115.715,1798.402,1115.715z M1798.402,1021.793
			c-21.758,0-39.461,17.703-39.461,39.462c0,21.758,17.703,39.46,39.461,39.46s39.461-17.702,39.461-39.46
			C1837.863,1039.496,1820.16,1021.793,1798.402,1021.793z"/>
	</g>
	<g>
		<path style="fill:#FFFFFF;" d="M2896.399,983.323c-19.75,0-35.817-16.067-35.817-35.817s16.067-35.816,35.817-35.816
			c19.749,0,35.817,16.066,35.817,35.816S2916.148,983.323,2896.399,983.323z M2896.399,921.554
			c-14.31,0-25.952,11.642-25.952,25.952c0,14.31,11.643,25.951,25.952,25.951c14.311,0,25.952-11.641,25.952-25.951
			C2922.352,933.195,2910.71,921.554,2896.399,921.554z"/>
	</g>
	<g>
		<path style="fill:#E3EAFF;" d="M820.944,308.969c-19.749,0-35.816-16.067-35.816-35.817c0-19.749,16.067-35.818,35.816-35.818
			c19.75,0,35.817,16.069,35.817,35.818C856.762,292.901,840.694,308.969,820.944,308.969z M820.944,247.199
			c-14.309,0-25.952,11.643-25.952,25.952c0,14.309,11.643,25.952,25.952,25.952c14.311,0,25.952-11.644,25.952-25.952
			C846.896,258.842,835.255,247.199,820.944,247.199z"/>
	</g>
	<g>
		<path style="fill:#E3EAFF;" d="M1512.184,539.84c-19.75,0-35.817-16.067-35.817-35.817c0-19.749,16.067-35.816,35.817-35.816
			S1548,484.273,1548,504.022C1548,523.773,1531.934,539.84,1512.184,539.84z M1512.184,478.071
			c-14.311,0-25.952,11.642-25.952,25.951c0,14.311,11.642,25.952,25.952,25.952s25.952-11.642,25.952-25.952
			C1538.136,489.713,1526.494,478.071,1512.184,478.071z"/>
	</g>
	<g>
		<path style="fill:#E3EAFF;" d="M1942.186,326.724c-24.645,0-44.694-20.05-44.694-44.694c0-24.645,20.05-44.696,44.694-44.696
			s44.695,20.052,44.695,44.696C1986.881,306.674,1966.83,326.724,1942.186,326.724z M1942.186,249.645
			c-17.857,0-32.385,14.528-32.385,32.385c0,17.857,14.527,32.384,32.385,32.384s32.385-14.527,32.385-32.384
			C1974.57,264.173,1960.043,249.645,1942.186,249.645z"/>
	</g>
	<circle style="fill:#E3EAFF;" cx="720.108" cy="384.015" r="54.345"/>
	<path style="fill:#E3EAFF;" d="M1286.391,712.861c0,30.013-24.331,54.344-54.345,54.344s-54.345-24.331-54.345-54.344
		c0-30.015,24.331-54.345,54.345-54.345S1286.391,682.847,1286.391,712.861z"/>
	<path style="fill:#E3EAFF;" d="M2062.713,383.75c0,18.728-15.182,33.908-33.908,33.908s-33.906-15.181-33.906-33.908
		c0-18.725,15.18-33.907,33.906-33.907S2062.713,365.025,2062.713,383.75z"/>
	<path style="fill:#FFFFFF;" d="M1920.495,974.586c0,17.173-13.921,31.092-31.093,31.092s-31.092-13.919-31.092-31.092
		c0-17.171,13.92-31.092,31.092-31.092S1920.495,957.415,1920.495,974.586z"/>
	<path style="fill:#FFFFFF;" d="M1487.871,1107.137l36.615,22.89l-42.969-4.271c-5.791-0.577-11.359,2.392-14.109,7.521
		l-30.418,56.734l10.622-63.538c0.956-5.717-1.61-11.45-6.512-14.545l-35.693-22.54l42.026,3.984
		c5.771,0.547,11.306-2.42,14.045-7.529l30.439-56.775l-10.614,63.492C1480.345,1098.3,1482.937,1104.053,1487.871,1107.137z"/>
	<path style="fill:#FFFFFF;" d="M2803.246,744.565l28.455,17.788l-33.393-3.321c-4.502-0.448-8.83,1.86-10.967,5.847l-23.64,44.092
		l8.255-49.381c0.743-4.443-1.252-8.898-5.061-11.303l-27.74-17.518l32.662,3.097c4.484,0.425,8.786-1.882,10.915-5.852
		l23.657-44.124l-8.249,49.345C2797.396,737.696,2799.41,742.167,2803.246,744.565z"/>
	<path style="fill:#E3EAFF;" d="M1144.312,266.843l39.299-2.023l-34.323,19.246c-4.627,2.594-7.236,7.719-6.611,12.985l6.904,58.26
		l-25.244-53.006c-2.271-4.77-7.182-7.711-12.458-7.463l-38.43,1.801l33.471-18.969c4.596-2.604,7.182-7.71,6.56-12.956
		l-6.91-58.301l25.226,52.966C1134.074,264.171,1139.015,267.116,1144.312,266.843z"/>
	<g>
		<g>
			<g>
				<path style="fill:#97AAE8;" d="M1472.649,1418.983c-21.887-47.166,33.142-106.624,6.894-151.51
					c-16.303-27.879-59.144-38.039-63.917-69.979c-1.422-9.517,1.124-19.11,2.468-28.638c5.244-37.179-9.142-76.568-37.11-101.617
					c-27.898-24.986-68.492-34.966-104.8-25.792l-0.006-0.02c-0.045,0.017-0.089,0.036-0.134,0.052
					c-0.046,0.013-0.094,0.021-0.14,0.034l0.006,0.019c-35.064,13.175-64.495,45.083-73.16,81.518
					c-8.688,36.527,1.961,77.087,27.474,104.635c6.538,7.061,14.101,13.488,18.361,22.115c14.295,28.959-15.1,61.739-12.591,93.938
					c4.041,51.839,83.152,69.292,92.077,120.518c2.354,13.513-0.806,27.313-1.078,41.025c-1.19,59.868,63.841,111.253,121.81,96.248
					l2.97-0.929c56.172-20.738,80.283-100.037,45.16-148.533C1488.887,1440.96,1478.422,1431.423,1472.649,1418.983z"/>
				<g>
					<path style="fill:#859CE8;" d="M1279.647,1044.465l227.55,699.926c1.825,5.613-1.245,11.643-6.858,13.469
						c-5.613,1.824-11.644-1.246-13.467-6.86c-0.02-0.057-0.053-0.165-0.07-0.221l-212.288-704.706
						c-0.428-1.422,0.377-2.922,1.8-3.35C1277.716,1042.3,1279.195,1043.08,1279.647,1044.465z"/>
					<path style="fill:#859CE8;" d="M1299.03,1369.848c2.678-0.309,5.371-0.547,8.08-0.695c2.709-0.141,5.431-0.16,8.162-0.088
						c5.454,0.211,10.948,0.867,16.322,2.195c5.374,1.307,10.658,3.149,15.684,5.552c5.033,2.391,9.839,5.266,14.384,8.489
						c9.119,6.443,17.108,14.292,24.358,22.652c7.215,8.405,13.65,17.404,19.577,26.68c2.16,3.379,1.171,7.869-2.207,10.028
						c-3.379,2.159-7.869,1.171-10.029-2.208c-0.131-0.205-0.25-0.414-0.357-0.626l-0.014-0.027
						c-4.713-9.327-9.91-18.397-15.848-26.924c-5.972-8.479-12.642-16.498-20.43-23.271c-3.884-3.391-8.03-6.48-12.445-9.154
						c-4.408-2.685-9.114-4.882-14.015-6.613c-4.897-1.751-10.024-2.901-15.24-3.637c-2.613-0.332-5.248-0.582-7.898-0.712
						c-2.649-0.121-5.313-0.155-7.982-0.118c-0.423,0.007-0.771-0.328-0.778-0.75
						C1298.347,1370.227,1298.646,1369.896,1299.03,1369.848z"/>
					<path style="fill:#859CE8;" d="M1424.306,1262.41c-2.222,1.451-4.395,2.969-6.503,4.559c-2.104,1.598-4.12,3.293-6.069,5.053
						c-3.853,3.568-7.369,7.467-10.353,11.732c-6.053,8.483-10.029,18.236-12.476,28.305c-2.474,10.084-3.391,20.527-3.521,30.953
						c-0.071,10.445,0.709,20.908,2.007,31.315l0.002,0.018c0.365,2.931-1.713,5.602-4.644,5.967
						c-2.93,0.366-5.603-1.712-5.968-4.642c-0.015-0.123-0.026-0.26-0.033-0.383c-0.571-10.854-0.607-21.77,0.248-32.658
						c0.916-10.875,2.656-21.762,6.032-32.231c3.339-10.444,8.316-20.501,15.319-28.961c3.454-4.255,7.417-8.056,11.652-11.448
						c2.14-1.67,4.332-3.262,6.593-4.734c2.267-1.469,4.579-2.85,6.927-4.153c0.369-0.204,0.834-0.072,1.039,0.297
						C1424.755,1261.75,1424.638,1262.191,1424.306,1262.41z"/>
				</g>
			</g>
			<g>
				<path style="fill:#97AAE8;" d="M1584.972,1418.721c18.129-37.234-24.806-85.398-3.235-120.75
					c13.396-21.959,47.662-29.412,51.938-54.775c1.274-7.557-0.61-15.234-1.539-22.842c-3.622-29.684,8.418-60.836,31.063-80.367
					c22.588-19.481,55.062-26.824,83.837-18.979l0.005-0.016c0.035,0.015,0.07,0.029,0.105,0.045c0.037,0.01,0.074,0.018,0.11,0.027
					l-0.005,0.016c27.727,11.013,50.688,36.859,57.046,66.002c6.374,29.217-2.708,61.354-23.435,82.913
					c-5.311,5.524-11.429,10.529-14.95,17.337c-11.813,22.848,11.106,49.389,8.629,74.989
					c-3.989,41.222-67.245,53.943-75.114,94.603c-2.075,10.723,0.234,21.762,0.247,32.684c0.059,47.691-52.491,87.641-98.43,74.831
					l-2.35-0.785c-44.423-17.35-62.442-80.854-33.753-118.948C1571.714,1435.98,1580.189,1428.543,1584.972,1418.721z"/>
				<g>
					<path style="fill:#859CE8;" d="M1744.231,1123.36l-191.612,553.973c-1.536,4.442,0.818,9.289,5.262,10.827
						c4.442,1.537,9.289-0.82,10.826-5.262c0.015-0.047,0.044-0.131,0.059-0.176l179.529-558.006
						c0.362-1.127-0.257-2.332-1.383-2.695C1745.802,1121.664,1744.612,1122.265,1744.231,1123.36z"/>
					<path style="fill:#859CE8;" d="M1723.956,1382.178c-2.127-0.286-4.269-0.516-6.423-0.674c-2.156-0.152-4.324-0.208-6.499-0.193
						c-4.347,0.089-8.731,0.529-13.03,1.506c-4.299,0.961-8.533,2.35-12.571,4.189c-4.044,1.828-7.913,4.046-11.58,6.546
						c-7.358,4.995-13.837,11.125-19.734,17.676c-5.87,6.586-11.129,13.656-15.987,20.954c-1.77,2.658-1.049,6.248,1.609,8.018
						c2.659,1.769,6.249,1.051,8.019-1.608c0.108-0.161,0.206-0.325,0.295-0.494l0.012-0.021c3.892-7.356,8.164-14.503,13.02-21.204
						c4.882-6.662,10.312-12.949,16.614-18.226c3.143-2.644,6.491-5.042,10.047-7.104c3.55-2.074,7.331-3.752,11.259-5.059
						c3.927-1.322,8.025-2.16,12.189-2.669c2.086-0.226,4.188-0.385,6.3-0.448c2.113-0.059,4.233-0.045,6.359,0.023
						c0.336,0.013,0.618-0.25,0.63-0.586C1724.495,1382.489,1724.262,1382.221,1723.956,1382.178z"/>
					<path style="fill:#859CE8;" d="M1782.275,1207.451c-2.13-0.262-4.272-0.465-6.426-0.599c-2.154-0.127-4.318-0.157-6.487-0.116
						c-4.334,0.138-8.694,0.627-12.96,1.646c-4.265,1.004-8.456,2.432-12.444,4.302c-3.995,1.86-7.81,4.104-11.421,6.625
						c-7.246,5.038-13.607,11.194-19.393,17.764c-5.756,6.607-10.902,13.693-15.649,21.001c-1.373,2.113-0.771,4.941,1.342,6.313
						c2.113,1.373,4.939,0.772,6.312-1.342c0.063-0.096,0.121-0.193,0.176-0.293l0.013-0.023
						c4.004-7.346,8.389-14.478,13.358-21.158c4.996-6.644,10.541-12.902,16.956-18.138c3.199-2.622,6.602-4.993,10.205-7.025
						c3.601-2.042,7.425-3.684,11.386-4.945c3.961-1.279,8.084-2.069,12.262-2.527c2.092-0.201,4.196-0.335,6.311-0.374
						c2.113-0.031,4.233,0.005,6.357,0.1c0.335,0.018,0.621-0.242,0.637-0.578
						C1782.824,1207.766,1782.586,1207.49,1782.275,1207.451z"/>
					<path style="fill:#859CE8;" d="M1625.796,1294.76c1.749,1.19,3.456,2.43,5.111,3.729c1.651,1.303,3.231,2.684,4.758,4.113
						c3.015,2.898,5.758,6.055,8.069,9.496c4.694,6.846,7.715,14.671,9.514,22.725c1.82,8.066,2.394,16.396,2.343,24.701
						c-0.098,8.316-0.876,16.639-2.064,24.906l-0.002,0.014c-0.335,2.329,1.281,4.488,3.609,4.821
						c2.328,0.335,4.486-1.28,4.821-3.608c0.014-0.098,0.025-0.205,0.032-0.303c0.616-8.635,0.808-17.327,0.288-26.011
						c-0.566-8.675-1.791-17.368-4.324-25.756c-2.503-8.366-6.317-16.448-11.768-23.29c-2.688-3.439-5.787-6.523-9.108-9.289
						c-1.679-1.361-3.401-2.66-5.181-3.869c-1.781-1.202-3.604-2.336-5.453-3.409c-0.291-0.169-0.663-0.069-0.832,0.22
						C1625.449,1294.227,1625.536,1294.582,1625.796,1294.76z"/>
				</g>
			</g>
			<g>
				<path style="fill:#AEBCE8;" d="M1607.674,1339.297c-6.792-51.553,63.489-91.85,51.854-142.529
					c-7.228-31.476-45.075-53.974-40.086-85.88c1.487-9.508,6.784-17.901,10.914-26.593c16.114-33.912,14.156-75.801-5.05-108.064
					c-19.157-32.181-54.913-53.835-92.304-55.93v-0.021c-0.047,0.003-0.095,0.007-0.143,0.01c-0.048-0.003-0.096-0.007-0.144-0.01
					v0.021c-37.399,2.094-75.02,23.749-94.177,55.93c-19.207,32.263-21.163,74.151-5.049,108.064
					c4.129,8.691,9.425,17.085,10.912,26.593c4.989,31.906-32.858,54.404-40.085,85.88c-11.636,50.68,58.645,90.977,51.854,142.529
					c-1.791,13.598-8.929,25.824-13.288,38.828c-19.026,56.775,27.68,125.246,87.483,128.25h3.111
					c59.803-3.004,106.507-71.475,87.481-128.25C1616.603,1365.121,1609.465,1352.895,1607.674,1339.297z"/>
				<g>
					<path style="fill:#97AAE8;" d="M1535.406,924.218l7.997,735.941c0.063,5.903-4.668,10.739-10.57,10.803
						c-5.901,0.064-10.738-4.668-10.803-10.57c0-0.059,0-0.172,0-0.232l7.997-735.941c0.017-1.485,1.233-2.677,2.719-2.659
						C1534.211,921.573,1535.39,922.761,1535.406,924.218z"/>
					<path style="fill:#97AAE8;" d="M1456.67,1240.525c2.649,0.505,5.29,1.083,7.919,1.75c2.628,0.676,5.231,1.472,7.816,2.355
						c5.142,1.832,10.188,4.1,14.92,6.973c4.738,2.851,9.23,6.189,13.308,9.984c4.09,3.785,7.816,7.965,11.189,12.4
						c6.777,8.875,12.057,18.75,16.479,28.896c4.372,10.178,7.823,20.688,10.71,31.312c1.051,3.869-1.235,7.859-5.104,8.91
						c-3.87,1.051-7.859-1.234-8.91-5.104c-0.064-0.234-0.116-0.471-0.155-0.705l-0.004-0.029c-1.711-10.31-3.96-20.52-7.079-30.43
						c-3.165-9.877-7.134-19.521-12.542-28.313c-2.691-4.396-5.727-8.584-9.142-12.455c-3.403-3.881-7.238-7.383-11.397-10.5
						c-4.15-3.134-8.699-5.764-13.458-8.023c-2.394-1.098-4.833-2.123-7.323-3.039c-2.494-0.908-5.024-1.738-7.583-2.498
						c-0.405-0.119-0.638-0.545-0.519-0.949C1455.904,1240.682,1456.29,1240.455,1456.67,1240.525z"/>
					<path style="fill:#97AAE8;" d="M1456.67,1009.246c2.641,0.535,5.274,1.143,7.891,1.841c2.616,0.705,5.205,1.53,7.772,2.439
						c5.107,1.888,10.106,4.203,14.78,7.113c4.681,2.892,9.104,6.257,13.111,10.071c4.019,3.803,7.67,7.992,10.97,12.429
						c6.626,8.88,11.757,18.741,16.033,28.866c4.229,10.156,7.541,20.641,10.291,31.232c0.794,3.063-1.044,6.19-4.107,6.984
						c-3.063,0.795-6.19-1.043-6.984-4.105c-0.037-0.14-0.066-0.279-0.093-0.419l-0.006-0.035
						c-1.847-10.339-4.234-20.575-7.498-30.507c-3.309-9.898-7.427-19.559-12.984-28.343c-2.769-4.395-5.877-8.572-9.362-12.423
						c-3.476-3.864-7.378-7.338-11.595-10.418c-4.208-3.097-8.805-5.676-13.598-7.883c-2.412-1.07-4.865-2.068-7.367-2.953
						c-2.505-0.879-5.046-1.677-7.611-2.407c-0.407-0.114-0.644-0.536-0.53-0.942
						C1455.892,1009.401,1456.283,1009.17,1456.67,1009.246z"/>
					<path style="fill:#97AAE8;" d="M1608.328,1175.432c-2.556,0.721-5.081,1.52-7.568,2.407c-2.485,0.896-4.917,1.912-7.303,3.01
						c-4.743,2.253-9.264,4.921-13.386,8.101c-8.311,6.287-15.021,14.406-20.363,23.282c-5.375,8.886-9.369,18.577-12.609,28.488
						c-3.189,9.945-5.571,20.164-7.442,30.484l-0.004,0.018c-0.525,2.904-3.31,4.834-6.214,4.306
						c-2.906-0.526-4.835-3.309-4.308-6.214c0.022-0.122,0.052-0.256,0.081-0.375c2.698-10.528,5.926-20.957,9.997-31.091
						c4.123-10.106,9.037-19.975,15.389-28.957c6.307-8.97,14.063-17.08,23.272-23.059c4.568-3.028,9.486-5.471,14.541-7.443
						c2.541-0.955,5.108-1.816,7.707-2.549c2.602-0.723,5.222-1.349,7.852-1.893c0.413-0.085,0.817,0.18,0.902,0.594
						C1608.953,1174.936,1608.709,1175.322,1608.328,1175.432z"/>
				</g>
			</g>
			<path id="Vector_23_5_" style="fill:#494C7F;" d="M1602.319,1628.781h-174.958c-13.706,0-24.331,12.337-22.695,26.352
				l23.579,202.091c1.38,11.831,11.125,20.734,22.695,20.734h127.8c11.569,0,21.313-8.903,22.694-20.734l23.58-202.091
				C1626.649,1641.118,1616.025,1628.781,1602.319,1628.781z"/>
		</g>
		<g>
			<g>
				<path style="fill:#4364CC;" d="M1378.943,1714.238l52.54,167.525c1.402,4.469,3.74,7.146,6.239,7.146l0,0
					c4.632,0,8.167-8.939,7.442-18.817l-11.439-155.854H1378.943z"/>
				<path style="fill:#4364CC;" d="M894.366,1714.238l-52.541,167.525c-1.401,4.469-3.739,7.146-6.239,7.146l0,0
					c-4.632,0-8.167-8.939-7.441-18.817l11.44-155.854H894.366z"/>
				<path style="fill:#4364CC;" d="M644.447,1714.238l-52.541,167.525c-1.401,4.469-3.738,7.146-6.238,7.146l0,0
					c-4.632,0-8.167-8.939-7.442-18.817l11.439-155.854H644.447z"/>
				<path style="fill:#768FDB;" d="M945.55,1720.399h446.423c46.462,0,84.127-37.665,84.127-84.127v-254.275
					c0-36.129-29.286-65.414-65.414-65.414H945.55V1720.399z"/>
				<path style="fill:#4364CC;" d="M828.05,1720.399h446.421c46.463,0,84.129-37.665,84.129-84.129v-254.274
					c0-36.127-29.287-65.414-65.415-65.414H828.05V1720.399z"/>
				<path style="fill:#768FDB;" d="M725.403,1418.709h391.2v-268.605c0-33.553-27.2-60.754-60.754-60.754H725.403V1418.709z"/>
				<path style="fill:#95ADF5;" d="M683.293,1411.796h599.643c42.361,0,76.702,34.341,76.702,76.702v38.848H683.293V1411.796z"/>
				<rect x="683.293" y="1513.919" style="fill:#768FDB;" width="676.345" height="206.776"/>
				<path style="fill:#4364CC;" d="M589.331,1418.709h136.072V1089.35h-73.287c-34.675,0-62.785,28.109-62.785,62.785V1418.709z"/>
			</g>
			<g>
				<path style="fill:#201D40;" d="M1046.004,737.12c0.611-67.816-94.143-87.008-125.329-66.617
					c-76.919,50.294-55.174,78.876-55.174,119.943c0,41.068-35.477,44.027-69.567,40.78c-50.376-4.797-81.405,58.777-56.373,103.151
					c26.388,46.778,42.795,83.438,1.727,116.807c-41.067,33.367,48.768,128.336,125.77,71.867
					c77.002-56.468,118.866-109.199,93.198-132.3c-25.667-23.101-2.863-111.791,25.188-118.744
					C1013.496,865.055,1046.004,737.12,1046.004,737.12z"/>
				<path style="fill:#2C2858;" d="M1089.079,961.349c66.735-17.325,96.761-164.131,18.764-215.927
					c-81.648-54.222-193.948-4.092-206.135,81.174c-12.185,85.265,59.362,133.773,59.362,133.773L1089.079,961.349z"/>
				<path style="fill:#F37A50;" d="M1477.694,1663.73l25.821,36.117c0,0,23.063,29.396,50.557,15.595
					c27.493-13.802,15.307-57.96,15.307-57.96l-31.587-41.588L1477.694,1663.73z"/>
				<g>
					<g>
						<g>
							<path style="fill:#2C2858;" d="M1568.301,1652.699c0,0,27.764-0.26,57.923-10.536c16.872-5.749,60.979-22.475,70.882,7.704
								c1.478,4.504,0.788,10.811-7.49,20.402c-12.226,14.168-30.89,29.761-74.657,43.318
								c-52.507,16.266-56.741,25.564-76.798,30.522c-20.786,5.138-27.664-23.855-35.702-47.415l0,0
								c3.667,4.972,14.594,17.216,53.648,10.076C1567.767,1704.639,1534.49,1667.994,1568.301,1652.699z"/>
						</g>
					</g>
				</g>
				<path style="fill:#F37A50;" d="M1259.003,1787.904v24.496c0,0,1.666,37.326,32.057,42.088
					c30.393,4.764,46.161-38.246,46.161-38.246l-1.115-38.583L1259.003,1787.904z"/>
				<g>
					<path style="fill:#C4204A;" d="M1142.563,1177.752c-14.823-0.129-45.198,54.229-42.62,58.727
						c35.939,39.859,176.321,43.957,176.321,43.957l16.863-17.299C1293.127,1263.137,1209.703,1224.867,1142.563,1177.752z"/>
					<path style="fill:#C4204A;" d="M991.441,1041.128c13.649,41.057,93.689,190.311,108.501,195.351l42.62-58.727
						c0,0-48.548-122.841-85.152-169.009C1031.394,975.929,969.03,974.14,991.441,1041.128z"/>
				</g>
				<path style="fill:#F37A50;" d="M1006.576,937.451c0,0,2.81,48.408,5.274,67.901l-57.351,23.444
					c-18.338-71.464-3.299-148.698-3.299-148.698L1006.576,937.451z"/>
				<path style="fill:#3F964F;" d="M1039.391,1435.344l294.944-12.603c0,0,14.55-73.612,3.604-102.798
					s-281.935-23.168-281.935-23.168L1039.391,1435.344z"/>
				<path style="fill:#0E6A41;" d="M952.644,1246.33c-7.991,18.471-39.141,73.442-36.132,118.006
					c3.104,45.993,35.557,86.037,90.479,85.166c0,0,103.519-58.846,81.112-179.381
					C1088.104,1270.121,1033.909,1248.954,952.644,1246.33z"/>
				<path style="fill:#0E6A41;" d="M998.808,1460l259.805,24.508c0,0,89.121-37.607,88.614-69.547
					c-0.508-31.941-262.284-119.336-262.284-119.336C931.411,1250.85,880.231,1441.405,998.808,1460z"/>
				<path style="fill:#0E6A41;" d="M1347.227,1414.961l-5.208,366.465c0,0-64.856,27.332-87.584,0.21
					c-10.727-124.378-61.801-234.563-4.781-310.386C1326.021,1369.697,1347.227,1414.961,1347.227,1414.961z"/>
				<path style="fill:#3F964F;" d="M1337.314,1319.084l216.2,296.909c0,0-48.254,64.493-81.948,56.943
					c-58.132-73.56-175.765-159.814-176.516-252.382C1294.046,1296.57,1337.314,1319.084,1337.314,1319.084z"/>
				<path style="fill:#E62552;" d="M949.412,985.373l61.119,0.862c43.51,28.348,75.753,68.406,81.745,94.93
					c7.89,34.92,9.614,225.658,9.614,225.658c-61.222,22.411-129.638,2.447-174.239-14.121
					c11.19-92.831-73.885-206.818-30.507-277.461C907.969,997.613,926.81,994.145,949.412,985.373z"/>
				<g>
					<g>
						<g>
							<path style="fill:#2C2858;" d="M1339.125,1811.725c0,0,22.737,15.935,53.247,25.115c17.069,5.136,62.676,17.184,53.18,47.492
								c-1.416,4.523-5.646,9.252-17.958,12.24c-18.187,4.416-42.438,6.245-85.927-8.18c-52.173-17.307-61.024-12.205-80.224-19.837
								c-19.898-7.909-8.631-35.496-1.468-59.335l0,0c0.091,6.177,1.859,22.492,37.782,39.397
								C1308.483,1853.666,1302.727,1804.502,1339.125,1811.725z"/>
						</g>
					</g>
				</g>
				<g>
					<path style="fill:#2C2858;" d="M1093.433,1322.268h235.698l46.524-147.926c2.148-6.832-2.954-13.786-10.115-13.786h-213.466
						c-4.631,0-8.727,3.006-10.116,7.423L1093.433,1322.268z"/>
					<path style="fill:#494C7F;" d="M1111.312,1322.268h225.578c6.022,0,11.349-3.908,13.154-9.654l43.489-138.271
						c2.148-6.832-2.954-13.786-10.115-13.786h-213.466c-4.631,0-8.726,3.006-10.116,7.423L1111.312,1322.268z"/>
					<path style="fill:#555994;" d="M1250.072,1244.326c-2.597,9.138,2.025,18.457,10.323,20.813
						c8.298,2.358,17.129-3.138,19.726-12.276c2.596-9.137-2.026-18.455-10.324-20.813
						C1261.5,1229.691,1252.669,1235.188,1250.072,1244.326z"/>
					<path style="fill:#2C2858;" d="M983.44,1300.361h127.871v21.536H967.549v-5.646
						C967.549,1307.476,974.664,1300.361,983.44,1300.361z"/>
				</g>
				<path style="fill:#F37A50;" d="M1083.859,1311.172c-16.873-0.143-39.04,3.066-38.518-5.674
					c0.522-8.743,9.215-11.955,10.267-22.457c0.934-9.314-24.98-3.934-50.073,17.373l-11.127-2.605l-11.511,34.328l10.586,3.916
					c17.892,21.513,71.825,32.517,103.532,15.73C1129.122,1334.783,1100.733,1311.316,1083.859,1311.172z"/>
				<path style="fill:#C4204A;" d="M870.774,1042.27c-20.789,45.708-86.059,142.891-69.355,200.328
					c11.694,40.213,184.919,99.063,184.919,99.063l16.458-41.947l-120.371-89.57c0,0,79.274-124.164,86.575-150.074
					C981.766,1014.762,903.467,970.393,870.774,1042.27z"/>
				<g>
					<path style="fill:#F37A50;" d="M956.05,852.616c-9.544,63.044,22.859,120.227,72.374,127.724
						c49.515,7.494,97.392-37.535,106.935-100.579c9.544-63.044-22.859-120.228-72.373-127.724
						C1013.47,744.541,965.594,789.571,956.05,852.616z"/>
					<path d="M1108.087,886.278c0.369,4.795,4.557,8.384,9.352,8.015c4.797-0.369,8.385-4.557,8.016-9.353
						c-0.37-4.796-4.557-8.384-9.353-8.015C1111.307,877.295,1107.718,881.482,1108.087,886.278z"/>
					<path d="M1038.354,876.209c0.399,5.192,4.932,9.076,10.123,8.677c5.191-0.4,9.076-4.933,8.676-10.124
						c-0.399-5.191-4.932-9.075-10.123-8.676S1037.954,871.019,1038.354,876.209z"/>
					<g>
						<path style="fill:#2C2858;" d="M1031.629,865.058c0.716-0.056,1.419-0.345,1.984-0.873c8.209-7.672,20.785-4.715,20.911-4.685
							c1.755,0.428,3.531-0.643,3.965-2.397c0.434-1.754-1.231-4.417-2.882-5.152c-5.782-2.578-16.409-4.019-27.257,6.119
							c-1.322,1.236-0.607,4.635,0.629,5.958C1029.688,864.784,1030.67,865.131,1031.629,865.058z"/>
					</g>
					<g>
						<path style="fill:#2C2858;" d="M1130.711,880.467c0.35-0.027,0.702-0.111,1.044-0.258c1.663-0.715,2.862-3.929,2.146-5.591
							c-5.555-12.916-14.157-13.649-18.912-13.211c-1.8,0.164-3.936,2.007-4.032,3.815c-0.096,1.803,1.283,3.343,3.084,3.446
							c0.425,0.029,9.5,0.74,13.407,9.823C1128.017,879.815,1129.352,880.571,1130.711,880.467z"/>
					</g>
					<path style="fill:#DE623C;" d="M1090.306,897.209c3.247,6.038,5.889,12.058,9.487,16.074c1.213,1.354,1.125,3.457-0.167,4.734
						c-5.337,5.273-17.16,7.496-24.273,8.384c-1.039,0.129-1.453-1.301-0.507-1.748c8.006-3.79,11.937-7.141,13.739-9.082
						c0.896-0.965,1.259-2.297,1.01-3.59c-0.572-2.969-1.679-9.005-2.199-13.889
						C1087.217,896.406,1089.503,895.714,1090.306,897.209z"/>
					<path style="fill:#2C2858;" d="M940.618,845.225c56.796,14.631,157.59,6.938,182.864-45.593
						c3.3-38.061-39.712-60.494-77.479-62.512C991.661,734.218,935.066,793.393,940.618,845.225z"/>
					<g>
						<path style="fill:#F37A50;" d="M975.53,849.373c8.734,15.102,5.796,33.138-6.563,40.285
							c-12.358,7.148-29.457,0.699-38.19-14.401c-8.734-15.102-5.796-33.138,6.563-40.286
							C949.698,827.824,966.797,834.271,975.53,849.373z"/>
						<g>
							<path style="fill:#DE623C;" d="M954.54,880.276c0.572-0.044,1.143-0.218,1.668-0.533c7.543-4.531,10.974-11.668,9.177-19.092
								c-1.839-7.602-8.595-13.478-16.064-13.972c-2.102-0.138-3.919,1.452-4.058,3.554c-0.14,2.103,1.452,3.918,3.554,4.058
								c4.092,0.271,8.112,3.854,9.153,8.154c1,4.132-1.021,7.953-5.69,10.759c-1.807,1.084-2.391,3.428-1.306,5.233
								C951.744,879.718,953.146,880.385,954.54,880.276z"/>
						</g>
					</g>
					<path style="fill:#FFFFFF;" d="M1037.007,933.952c0.364-2.013,1.428-3.671,3.256-2.754c4.646,2.33,12.387,6.015,20.049,8.778
						c7.661,2.763,15.973,4.868,21.036,6.039c1.992,0.46,1.804,2.446,0.749,4.198c-4.366,7.252-16.305,12.859-28.049,8.624
						C1042.305,954.603,1035.651,941.44,1037.007,933.952z"/>
				</g>
			</g>
			<path style="fill:#768FDB;" d="M706.832,1720.399h256.301c46.463,0,84.128-37.665,84.128-84.127v-254.275
				c0-36.127-29.287-65.414-65.414-65.414H706.832V1720.399z"/>
			<path style="fill:#4364CC;" d="M589.331,1720.399h256.302c46.463,0,84.128-37.665,84.128-84.129v-254.274
				c0-36.127-29.287-65.414-65.415-65.414H589.331V1720.399z"/>
		</g>
		<g>
			<path style="fill:#CFDBFF;" d="M1402.223,819.242h-157.346c-9.772,0-17.695,7.923-17.695,17.694v88.298
				c0,9.772,7.923,17.694,17.695,17.694h5.129l18.233,34.351c2.369,4.462,8.696,4.646,11.319,0.328l21.078-34.679h101.586
				c9.771,0,17.694-7.923,17.694-17.694v-88.298C1419.917,827.165,1411.994,819.242,1402.223,819.242z"/>
			<path style="fill:#CFDBFF;" d="M1320.23,799.483L1320.23,799.483c-5.715,0-10.348-4.633-10.348-10.348v-31.467
				c0-5.715,4.633-10.348,10.348-10.348l0,0c5.715,0,10.348,4.633,10.348,10.348v31.467
				C1330.578,794.851,1325.945,799.483,1320.23,799.483z"/>
			<path style="fill:#CFDBFF;" d="M1357.729,796.452L1357.729,796.452c-4.041-4.04-4.041-10.593,0-14.634l22.25-22.25
				c4.041-4.041,10.593-4.041,14.633,0l0,0c4.042,4.042,4.042,10.593,0,14.634l-22.249,22.25
				C1368.321,800.493,1361.77,800.493,1357.729,796.452z"/>
			<path style="fill:#CFDBFF;" d="M1282.732,796.452L1282.732,796.452c4.041-4.04,4.041-10.593,0-14.634l-22.25-22.25
				c-4.041-4.041-10.593-4.041-14.634,0l0,0c-4.04,4.042-4.04,10.593,0,14.634l22.25,22.25
				C1272.141,800.493,1278.691,800.493,1282.732,796.452z"/>
			<path style="fill:#FFFFFF;" d="M1392.677,811.771h-157.346c-9.772,0-17.694,7.922-17.694,17.694v88.297
				c0,9.771,7.922,17.694,17.694,17.694h5.129l18.233,34.351c2.369,4.462,8.696,4.646,11.319,0.328l21.077-34.679h101.587
				c9.771,0,17.694-7.923,17.694-17.694v-88.297C1410.371,819.692,1402.448,811.771,1392.677,811.771z"/>
			<g>
				<path style="fill:#C4204A;" d="M1379.222,839.394l0.045,68.976c0.002,2.63-2.123,4.757-4.748,4.76l-119.877,0.078
					c-2.625,0.002-4.754-2.123-4.755-4.752l-0.047-68.977c-0.001-2.629,2.124-4.757,4.749-4.759l119.878-0.08
					C1377.092,834.638,1379.22,836.764,1379.222,839.394z"/>
				<path style="fill:#E62552;" d="M1379.222,839.394l0.003,3.813l-54.593,39.265c-5.301,3.972-12.567,4.039-17.94,0.165
					l-56.85-40.979l-0.002-2.178c-0.001-2.627,2.127-4.757,4.754-4.759l119.869-0.08
					C1377.089,834.638,1379.22,836.767,1379.222,839.394z"/>
			</g>
			<path style="fill:#FFFFFF;" d="M1313.202,792.937L1313.202,792.937c-5.715,0-10.348-4.634-10.348-10.347v-31.468
				c0-5.715,4.633-10.347,10.348-10.347l0,0c5.715,0,10.348,4.632,10.348,10.347v31.468
				C1323.55,788.303,1318.917,792.937,1313.202,792.937z"/>
			<path style="fill:#FFFFFF;" d="M1350.7,789.906L1350.7,789.906c-4.041-4.042-4.041-10.594,0-14.635l22.25-22.249
				c4.041-4.041,10.592-4.041,14.634,0l0,0c4.041,4.04,4.041,10.592,0,14.634l-22.251,22.25
				C1361.293,793.947,1354.741,793.947,1350.7,789.906z"/>
			<path style="fill:#FFFFFF;" d="M1275.704,789.906L1275.704,789.906c4.041-4.042,4.041-10.594,0-14.635l-22.25-22.249
				c-4.041-4.041-10.592-4.041-14.634,0l0,0c-4.041,4.04-4.041,10.592,0,14.634l22.251,22.25
				C1265.111,793.947,1271.663,793.947,1275.704,789.906z"/>
		</g>
		<g>
			<g>
				<g>
					<path style="fill:#E62552;" d="M816.777,1517.724h-23.495c-3.746,0-6.783-3.038-6.783-6.784c0-3.745,3.037-6.783,6.783-6.783
						h16.712v-44.127h-16.712c-3.746,0-6.783-3.037-6.783-6.783c0-3.747,3.037-6.782,6.783-6.782h23.495
						c3.746,0,6.783,3.035,6.783,6.782v57.693C823.561,1514.686,820.523,1517.724,816.777,1517.724z"/>
				</g>
				<path style="fill:#E62552;" d="M783.807,1544.437h-69.24c-5.233,0-9.475-4.242-9.475-9.476v-105.736
					c0-5.232,4.241-9.475,9.474-9.475h69.241c5.233,0,9.476,4.242,9.476,9.475v105.736
					C793.282,1540.194,789.04,1544.437,783.807,1544.437z"/>
			</g>
			<path style="fill:#FFFFFF;" d="M740.572,1407.878c0,0-28.502-11.561-19.683-32.49c8.819-20.929,40.892-18.173,22.65-48.488
				c21.997,12.126,25.304,39.136,8.217,45.75C734.67,1379.264,733.797,1396.007,740.572,1407.878z"/>
			<path style="fill:#FFFFFF;" d="M767.354,1407.878c0,0-20.268-8.222-13.996-23.104c6.271-14.881,29.077-12.921,16.106-34.48
				c15.643,8.624,17.994,27.829,5.844,32.533C763.157,1387.531,762.537,1399.437,767.354,1407.878z"/>
		</g>
		<g>
			<path style="fill:#95ADF5;" d="M827.998,1584.518H370.902c-11.348,0-20.546-9.199-20.546-20.546l0,0
				c0-11.349,9.198-20.546,20.546-20.546h457.096c11.348,0,20.546,9.197,20.546,20.546l0,0
				C848.544,1575.318,839.346,1584.518,827.998,1584.518z"/>
			<rect x="398.65" y="1577.246" style="fill:#95ADF5;" width="26.479" height="304.51"/>
			<rect x="773.771" y="1577.246" style="fill:#95ADF5;" width="26.479" height="304.51"/>
		</g>
		<g>
			<g>
				<path style="fill:#E62552;" d="M658.975,1512.233v21.31h5.803c2.815,0,5.099,2.283,5.099,5.1v0.857
					c0,2.816-2.283,5.098-5.099,5.098H417.489c-3.265,0-5.933-2.652-5.933-5.934v-30.695c0-3.277,2.656-5.934,5.933-5.934h247.288
					c2.815,0,5.099,2.283,5.099,5.098l0,0c0,2.817-2.283,5.1-5.099,5.1H658.975z"/>
				<path style="fill:#FFFFFF;" d="M659.708,1533.539H445.286c-3.419,0-6.19-2.771-6.19-6.189v-8.926
					c0-3.42,2.771-6.191,6.191-6.191h214.421V1533.539z"/>
			</g>
			<g>
				<path style="fill:#3F964F;" d="M389.691,1466.22v23.583h-5.803c-2.815,0-5.099,2.525-5.099,5.641v0.95
					c0,3.116,2.283,5.642,5.099,5.642h247.287c3.266,0,5.934-2.936,5.934-6.566v-33.967c0-3.625-2.656-6.566-5.934-6.566H383.889
					c-2.815,0-5.099,2.527-5.099,5.643l0,0c0,3.116,2.283,5.642,5.099,5.642H389.691z"/>
				<path style="fill:#FFFFFF;" d="M388.958,1489.799h214.1c3.597,0,6.513-2.916,6.513-6.514v-10.552
					c0-3.597-2.916-6.513-6.513-6.513h-214.1V1489.799z"/>
			</g>
			<path style="fill:#E62552;" d="M629.585,1433.086H411.838c-7.121,0-12.894-5.773-12.894-12.894v-12.449
				c0-7.121,5.772-12.894,12.894-12.894h217.747c7.12,0,12.892,5.772,12.892,12.894v12.45
				C642.477,1427.314,636.705,1433.086,629.585,1433.086z"/>
			<path style="fill:#768FDB;" d="M650.331,1454.936H422.92c-4.452,0-8.061-3.607-8.061-8.06v-5.727
				c0-4.453,3.609-8.063,8.061-8.063h227.41c4.452,0,8.062,3.609,8.062,8.063v5.727
				C658.392,1451.327,654.783,1454.936,650.331,1454.936z"/>
		</g>
	</g>
</g>
</svg>
